<?xml version="1.0" encoding="utf-8"?>
<!-- Generator: Adobe Illustrator 22.1.0, SVG Export Plug-In . SVG Version: 6.00 Build 0)  -->
<svg version="1.1" id="Layer_1" xmlns="http://www.w3.org/2000/svg" xmlns:xlink="http://www.w3.org/1999/xlink" x="0px" y="0px"
	 viewBox="0 0 900 600" style="enable-background:new 0 0 900 600;" xml:space="preserve">
<style type="text/css">
	.st0{fill:none;}
	.st1{fill:#A2964B;}
	.st2{fill:#6C813A;}
	.st3{fill:#808134;}
	.st4{fill:#465F2C;}
	.st5{fill:#142917;}
	.st6{fill:#8E7D32;}
	.st7{fill:#CAB671;}
	.st8{fill:#304723;}
	.st9{display:none;}
	.st10{display:inline;opacity:0.46;}
	.st11{fill:url(#SVGID_1_);stroke:#231F20;stroke-miterlimit:10;}
	.st12{fill:#A2A3D1;stroke:#231F20;stroke-miterlimit:10;}
	.st13{fill:url(#SVGID_2_);stroke:#231F20;stroke-miterlimit:10;}
	.st14{fill:#A11D21;stroke:#231F20;stroke-miterlimit:10;}
	.st15{fill:#F8EC31;stroke:#231F20;stroke-miterlimit:10;}
	.st16{fill:#0A0807;stroke:#231F20;stroke-miterlimit:10;}
	.st17{fill:none;stroke:#231F20;stroke-miterlimit:10;}
	.st18{fill:url(#SVGID_3_);stroke:#231F20;stroke-miterlimit:10;}
	.st19{fill:url(#SVGID_4_);stroke:#231F20;stroke-miterlimit:10;}
	.st20{fill:#BDB79D;stroke:#231F20;stroke-miterlimit:10;}
	.st21{fill:url(#SVGID_5_);stroke:#231F20;stroke-miterlimit:10;}
	.st22{fill:#FFD261;stroke:#231F20;stroke-miterlimit:10;}
	.st23{fill:#3A2316;stroke:#231F20;stroke-miterlimit:10;}
	.st24{fill:#231F20;stroke:#231F20;stroke-miterlimit:10;}
	.st25{fill:#FBCBC8;stroke:#231F20;stroke-miterlimit:10;}
	.st26{fill:#FBCCCB;stroke:#231F20;stroke-miterlimit:10;}
	.st27{fill:url(#SVGID_6_);stroke:#231F20;stroke-miterlimit:10;}
	.st28{fill:url(#hat_ribon_1_);stroke:#231F20;stroke-miterlimit:10;}
	.st29{fill:#8D8D90;stroke:#231F20;stroke-miterlimit:10;}
	.st30{fill:#A3A4A7;stroke:#231F20;stroke-miterlimit:10;}
	.st31{fill:#231F20;}
	.st32{font-family:'ArialMT';}
	.st33{font-size:47.7273px;}
	.st34{fill:none;stroke:#231F20;stroke-width:0.1;stroke-miterlimit:10;}
	.st35{fill:#1CC1E4;stroke:#231F20;stroke-width:0.1;stroke-miterlimit:10;}
	.st36{fill:#49C2C4;stroke:#231F20;stroke-width:0.1;stroke-miterlimit:10;}
	.st37{fill:#FFFFFF;stroke:#231F20;stroke-width:0.1;stroke-miterlimit:10;}
	.st38{fill:#FFFFFF;}
</style>
<pattern  y="600" width="72" height="72" patternUnits="userSpaceOnUse" id="Alligator" viewBox="4.8 -76.3 72 72" style="overflow:visible;">
	<g>
		<rect x="4.8" y="-76.3" class="st0" width="72" height="72"/>
		<g>
			<rect x="4.8" y="-76.3" class="st0" width="72" height="72"/>
			<g>
				<g>
					<path class="st1" d="M78.5-77.4c0-0.4,0-1.4,0-1.4s-2.4,0.8-3-0.1l-0.6,2.8C74.9-76.1,78.9-74.1,78.5-77.4z"/>
				</g>
				<g>
					<path class="st2" d="M79.3-77.1c0-0.4,0-1.4,0-1.4s-2.4,0.8-3-0.1l-0.6,2.8C75.7-75.8,79.7-73.8,79.3-77.1z"/>
				</g>
			</g>
			<g>
				<g>
					<path class="st1" d="M40.6-73.4c0,0-5.9-0.4-7,1.1c-0.2-1.8-1.5-3.9-0.4-5c1.1-0.5,4.7,1.2,6.2-0.9
						C39.8-78.7,42-76.9,40.6-73.4z"/>
					<path class="st1" d="M25.1-77.4l-0.6,2.1c0,0-2.1,0.2-2.2-0.6s0.2-1.5,0.2-1.5H25.1z"/>
					<path class="st1" d="M21.4-77.5L21-75.4c0,0-2.1,0.1-2.6-0.6c-0.5-0.7,1.2-2,1.2-2S20.8-77.1,21.4-77.5z"/>
					<path class="st1" d="M17.4-76.5c0,0-0.2-1.8,0.5-2.1c-0.9-0.6-2-0.9-2-0.9l-1.5,2.2C14.4-77.3,16.4-75.4,17.4-76.5z"/>
					<path class="st1" d="M6.5-77.4c0-0.4,0-1.4,0-1.4s-2.4,0.8-3-0.1l-0.6,2.8C2.9-76.1,6.9-74.1,6.5-77.4z"/>
					<path class="st1" d="M78.5-77.4c0-0.4,0-1.4,0-1.4s-2.4,0.8-3-0.1l-0.6,2.8C74.9-76.1,78.9-74.1,78.5-77.4z"/>
					<path class="st1" d="M42.5-73.9c0,0,0.5-3.2,0-3.8c2.5-0.1,6-1.5,6-1.5s2.1,4.4,1.1,5.1C48.6-73.3,43.2-72.9,42.5-73.9z"/>
					<path class="st1" d="M51.4-75c-0.3-0.4-0.5-4.1-0.5-4.1s3.5,0.2,4.4-0.5l1.9,3.6C57.1-76,52.3-73.5,51.4-75z"/>
					<path class="st1" d="M57.6-79l0.6,3.4c0,0,3.1,0.2,3.1-1.1c0-0.6-0.9-3.1-0.9-3.1S58.8-78.1,57.6-79z"/>
					<path class="st1" d="M73.5-76.1c0,0,1-1.9,0.9-3c-1.6,0.4-2.1,0.9-3.1,0.5l0.1,2.6C71.4-76,73.1-75.5,73.5-76.1z"/>
					<path class="st1" d="M69.9-76.5l-0.4-2.1c0,0-2.5,1.8-3.2,1.1l-0.1,2C66.1-75.5,68.5-74.8,69.9-76.5z"/>
					<path class="st1" d="M65.1-75.7v-1.5c0,0-2,1.6-2.5,0.8l-0.2,1.2L65.1-75.7z"/>
					<path class="st1" d="M13.2-75.9c0,0-2.2,1.4-2.2,0.2c0-0.8,0.2-1.9,0.2-1.9l2.4-0.6C13.6-78.1,13.5-76.9,13.2-75.9z"/>
					<path class="st1" d="M9.9-75.4c0,0-2,1.4-2.5,0.6l0.4-2.6l1.4-0.1L9.9-75.4z"/>
				</g>
				<g>
					<path class="st3" d="M58.5-78.7l0.6,3.4c0,0,3.1,0.2,3.1-1.1c0-0.6-0.9-3.1-0.9-3.1S59.6-77.8,58.5-78.7z"/>
				</g>
				<g>
					<path class="st4" d="M26-77.1l-0.7,2.2c0,0-2.1,0.2-2.2-0.6C23-76.3,23.3-77,23.3-77L26-77.1L26-77.1z"/>
					<path class="st2" d="M22.2-77.2l-0.4,2.1c0,0-2.1,0.1-2.6-0.6c-0.5-0.7,1.2-2,1.2-2S21.6-76.8,22.2-77.2z"/>
					<path class="st2" d="M18.2-76.2c0,0-0.2-1.8,0.5-2.1c-0.9-0.6-2-0.9-2-0.9l-1.5,2.3C15.2-76.9,17.2-75.1,18.2-76.2z"/>
					<path class="st2" d="M7.3-77.1c0-0.4,0-1.4,0-1.4s-2.3,0.8-3-0.1l-0.6,2.8C3.7-75.8,7.7-73.8,7.3-77.1z"/>
					<path class="st2" d="M79.3-77.1c0-0.4,0-1.4,0-1.4s-2.4,0.8-3-0.1l-0.6,2.8C75.7-75.8,79.7-73.8,79.3-77.1z"/>
					<path class="st2" d="M14.1-75.6c0,0-2.2,1.4-2.2,0.2c0-0.8,0.2-1.9,0.2-1.9l2.4-0.6C14.5-77.8,14.3-76.6,14.1-75.6z"/>
					<path class="st2" d="M10.7-75.1c0,0-2,1.4-2.5,0.6l0.4-2.6l1.4-0.1L10.7-75.1z"/>
				</g>
				<path class="st5" d="M41.4-73.1c0,0-5.9-0.4-7,1.1c-0.2-1.8-1.5-3.9-0.4-5c1.1-0.5,4.7,1.2,6.2-0.9
					C40.7-78.3,42.8-76.6,41.4-73.1z"/>
				<path class="st5" d="M43.3-73.6c0,0,0.5-3.3,0-3.8c2.5-0.1,6-1.5,6-1.5s2.1,4.4,1.1,5.1C49.5-72.9,44.1-72.6,43.3-73.6z"/>
				<path class="st5" d="M52.2-74.7c-0.3-0.4-0.5-4.1-0.5-4.1s3.5,0.2,4.4-0.5l1.9,3.6C58-75.7,53.1-73.2,52.2-74.7z"/>
				<path class="st5" d="M74.3-75.8c0,0,1-1.9,0.9-3c-1.6,0.4-2.1,0.9-3.1,0.5l0.1,2.6C72.2-75.7,74-75.2,74.3-75.8z"/>
				<path class="st5" d="M70.7-76.2l-0.4-2.1c0,0-2.5,1.8-3.2,1.1l-0.1,2C67-75.2,69.3-74.4,70.7-76.2z"/>
				<path class="st5" d="M66-75.3v-1.5c0,0-2,1.6-2.5,0.8l-0.2,1.3L66-75.3z"/>
			</g>
			<g>
				<g>
					<path class="st1" d="M6.5-77.4c0-0.4,0-1.4,0-1.4s-2.4,0.8-3-0.1l-0.6,2.8C2.9-76.1,6.9-74.1,6.5-77.4z"/>
				</g>
				<g>
					<path class="st2" d="M7.3-77.1c0-0.4,0-1.4,0-1.4s-2.3,0.8-3-0.1l-0.6,2.8C3.7-75.8,7.7-73.8,7.3-77.1z"/>
				</g>
			</g>
			<g>
				<path class="st1" d="M78.5-77.4c0-0.4,0-1.4,0-1.4s-2.4,0.8-3-0.1l-0.6,2.8C74.9-76.1,78.9-74.1,78.5-77.4z"/>
				<polygon class="st1" points="75.8,-68.8 75.4,-70.9 77.9,-70.9 79,-68.7 				"/>
				<path class="st6" d="M75.2-57.8L74.3-59c0,0,2.5,0.5,3-0.4l1.1,1C78.5-58.4,77.4-57.4,75.2-57.8z"/>
				<path class="st1" d="M74.2-60.1L74-61.8c0,0,2.4,0.2,3.4-1c0.4,1.2,0.1,2,0.1,2S76.4-59.3,74.2-60.1z"/>
				<path class="st1" d="M75.2-63.9l-0.2-3c0,0,1.6,0.2,2.8-0.4c0.8,1.2,0.6,2.8,0.6,2.8S76.9-63.3,75.2-63.9z"/>
				<path class="st1" d="M75.4-72.5l-0.2-2.1c0,0,1.4,1.1,2.8,0.1c0.6,0.6,0.6,2,0.6,2S76.5-71.7,75.4-72.5z"/>
				<g>
					<path class="st1" d="M75.3-43.7l0.2-2.2l0.9-0.2c0,0,0.8,2.1,1.1,2.9S75.6-42.4,75.3-43.7z"/>
					<path class="st1" d="M75.8-40.4L75-42.2c0,0,1.7,0.8,2.7,0C78.4-41.1,78.1-39.4,75.8-40.4z"/>
					<path class="st1" d="M74.6-36.6c0,0,1.5,0.7,1.5,3c1.5-0.2,2.2-1.5,2.2-1.5L77-39.3C76.9-39.2,73.1-38.4,74.6-36.6z"/>
					<path class="st1" d="M75.6-28.4c0,0-1.7,0.8-2.5-0.2c-0.3-1,0.7-2.4,0.7-2.4s2.3,0.1,2.6-0.7C75.7-30.6,75.6-28.4,75.6-28.4z"
						/>
					<path class="st1" d="M77.3-23.2c0,0-2.5,0.8-3.2,0c0.7-1.5-0.2-3.5-0.2-3.5c2.2,0.2,3,0.2,3,0.2S79.3-26.2,77.3-23.2z"/>
					<path class="st1" d="M78.9-19.3c0,0-1-1.6-0.5-2.5c-1.1-0.4-2-1-2.9-0.2c0,1.1,0.1,2.6,1.1,2.6L78.9-19.3z"/>
					<path class="st1" d="M77.1-18.1h-1.9c-0.6,1-0.6,2.9,0,3.4c1.1,0.1,1.1,0.1,1.1,0.1S76-17.4,77.1-18.1z"/>
					<path class="st1" d="M76.2-11.9H75c0,0-0.5-1.2,0.1-1.9h1.5C76.6-13.8,75.6-12.5,76.2-11.9z"/>
					<path class="st1" d="M78.5-8c0,0-0.8-1.5,0.2-2.5c0,0-2-1.8-3.1,0l-0.4,2.4C75.2-8.1,76.9-7,78.5-8z"/>
					<path class="st1" d="M78.5-5.4c0-0.4,0-1.4,0-1.4s-2.4,0.8-3-0.1l-0.6,2.8C74.9-4.1,78.9-2.1,78.5-5.4z"/>
					<path class="st1" d="M72.2-47.5c0,0,0.8-2.9-0.2-3.9c2-0.2,2.4-1.1,3.8,0c0.6,0.6,1,4.4-0.6,4S72.2-47.5,72.2-47.5z"/>
					<path class="st1" d="M75.4-53.1v-3.2c0,0,0.5-0.6,1.5-0.1s0.9,3,0.9,3S76.5-52.9,75.4-53.1z"/>
				</g>
				<path class="st4" d="M79.7-18.9c0,0-1-1.6-0.5-2.5c-1.1-0.4-2-1-2.9-0.2c0,1.1,0.1,2.6,1.1,2.6L79.7-18.9z"/>
				<path class="st4" d="M78-17.8h-1.9c-0.6,1-0.6,2.9,0,3.4c1.1,0.1,1.1,0.1,1.1,0.1S76.8-17.1,78-17.8z"/>
				<polygon class="st4" points="76.6,-68.4 76.2,-70.6 78.7,-70.6 79.8,-68.3 				"/>
				<path class="st5" d="M75.1-59.8l-0.2-1.6c0,0,2.4,0.2,3.4-1c0.4,1.2,0.1,2,0.1,2S77.2-58.9,75.1-59.8z"/>
				<path class="st4" d="M76.2-72.2L76-74.3c0,0,1.4,1.1,2.8,0.1c0.6,0.6,0.6,2,0.6,2S77.3-71.3,76.2-72.2z"/>
				<g>
					<path class="st3" d="M73.1-47.2c0,0,0.8-2.9-0.2-3.9c2-0.2,2.4-1.1,3.8,0c0.6,0.6,1,4.4-0.6,4S73.1-47.2,73.1-47.2z"/>
					<path class="st3" d="M76.2-52.8V-56c0,0,0.5-0.6,1.5-0.1s0.9,3,0.9,3S77.3-52.6,76.2-52.8z"/>
				</g>
				<g>
					<path class="st2" d="M77.1-11.6h-1.2c0,0-0.5-1.2,0.1-1.9h1.5C77.5-13.4,76.5-12.2,77.1-11.6z"/>
					<path class="st2" d="M79.3-7.7c0,0-0.8-1.5,0.2-2.5c0,0-2-1.8-3.1,0L76-7.8C76.1-7.8,77.7-6.7,79.3-7.7z"/>
					<path class="st2" d="M79.3-5.1c0-0.4,0-1.4,0-1.4s-2.4,0.8-3-0.1l-0.6,2.8C75.7-3.8,79.7-1.8,79.3-5.1z"/>
					<path class="st2" d="M79.3-77.1c0-0.4,0-1.4,0-1.4s-2.4,0.8-3-0.1l-0.6,2.8C75.7-75.8,79.7-73.8,79.3-77.1z"/>
				</g>
				<path class="st4" d="M76.1-57.4l-0.9-1.2c0,0,2.5,0.5,3-0.4l1.1,1C79.3-58.1,78.2-57.1,76.1-57.4z"/>
				<path class="st4" d="M76.1-43.3l0.2-2.2l0.9-0.2c0,0,0.8,2.1,1.1,2.9S76.4-42.1,76.1-43.3z"/>
				<path class="st5" d="M76.6-40.1l-0.8-1.8c0,0,1.7,0.8,2.7,0C79.3-40.7,78.9-39.1,76.6-40.1z"/>
				<path class="st5" d="M75.4-36.2c0,0,1.5,0.7,1.5,3c1.5-0.2,2.2-1.5,2.2-1.5l-1.3-4.2C77.8-38.9,73.9-38.1,75.4-36.2z"/>
				<path class="st5" d="M76.5-28c0,0-1.7,0.8-2.5-0.2c-0.3-1,0.7-2.4,0.7-2.4s2.3,0.1,2.6-0.7C76.5-30.3,76.5-28,76.5-28z"/>
				<path class="st5" d="M78.1-22.9c0,0-2.5,0.8-3.2,0c0.7-1.5-0.2-3.5-0.2-3.5c2.2,0.2,3,0.2,3,0.2S80.1-25.9,78.1-22.9z"/>
				<g>
					<path class="st5" d="M76.1-63.6l-0.2-3c0,0,1.6,0.2,2.8-0.4c0.8,1.2,0.6,2.8,0.6,2.8S77.7-62.9,76.1-63.6z"/>
				</g>
			</g>
			<g>
				<rect x="4.8" y="-76.3" class="st7" width="72" height="72"/>
				<path class="st1" d="M6.5-77.4c0-0.4,0-1.4,0-1.4s-2.4,0.8-3-0.1l-0.6,2.8C2.9-76.1,6.9-74.1,6.5-77.4z"/>
				<polygon class="st1" points="3.8,-68.8 3.4,-70.9 5.9,-70.9 7,-68.7 				"/>
				<path class="st6" d="M3.2-57.8L2.3-59c0,0,2.5,0.5,3-0.4l1.1,1C6.5-58.4,5.4-57.4,3.2-57.8z"/>
				<path class="st1" d="M2.2-60.1L2-61.8c0,0,2.4,0.2,3.4-1c0.4,1.2,0.1,2,0.1,2S4.4-59.3,2.2-60.1z"/>
				<path class="st1" d="M3.2-63.9l-0.2-3c0,0,1.6,0.2,2.8-0.4c0.8,1.2,0.6,2.8,0.6,2.8S4.9-63.3,3.2-63.9z"/>
				<path class="st1" d="M3.4-72.5l-0.3-2.2c0,0,1.4,1.1,2.8,0.1c0.6,0.6,0.6,2,0.6,2S4.5-71.7,3.4-72.5z"/>
				<g>
					<path class="st1" d="M39.8-36.6c0,0-3.2,0.2-5.7-1.3c-0.2-0.9,1.1-4.1,1.8-4.4c1,0.6,3.1,0.6,4.6,0.1
						C40-41.4,39.2-37.7,39.8-36.6z"/>
					<path class="st1" d="M41.2-36.1c0,0-0.6-4.2,0.9-5.5c1-0.4,1.6-0.6,2.4,0.1c-0.5,1-2,4.1-0.9,5.5
						C43.1-35.9,42.1-35.7,41.2-36.1z"/>
					<path class="st1" d="M44.9-36c0,0,2-0.8,3.2-0.2c0.4-1.2-1.2-4.6-0.5-5.5c-0.5-0.2-1.2,0-1.8,0.1S44.1-37.3,44.9-36z"/>
					<path class="st1" d="M49.6-36.3c0,0,1.8-0.2,2.3-0.2c0-1.6-1.9-4.2-1.1-4.9c-0.9-0.2-2.4,0.2-2.4,0.2S50.6-37.3,49.6-36.3z"/>
					<path class="st1" d="M52.8-37.2c0,0,1.6-1.1,2.5-1c-0.4-1.1-1.4-4-2-3.2c-0.5-0.1-1.2,0.2-1.2,0.2S53.3-39.2,52.8-37.2z"/>
					<path class="st1" d="M55.9-39.1l-1.1-3.4c0,0,1,0,1.5-0.4s0.5,3.1,1.2,3.2C57.1-39.3,56.5-38.4,55.9-39.1z"/>
					<path class="st1" d="M58.6-40c0,0-0.4-2-0.9-2.8c0.6-0.5,1.2-1.1,2.1-0.9s-0.1,1.6,0.8,2.4C60.3-40.5,59.5-39.9,58.6-40z"/>
					<path class="st1" d="M62-41.3c0,0-0.6-2.6-0.4-3.2s1-0.8,2-0.9s-0.1,3.6,1,3.9C63.8-41.1,62.9-40.8,62-41.3z"/>
					<path class="st1" d="M65.4-42.4c0,0-1.1-1.9-0.6-2.9s0.8,0,2.1-0.5c0.6,1.1-0.5,1.5,0.5,2.5S66.4-42,65.4-42.4z"/>
					<path class="st1" d="M68.8-42.9c0,0-0.6-2.4-0.2-2.8s1.5,0,1.5,0l0.4,2.6C70.4-43,69.8-42.4,68.8-42.9z"/>
					<path class="st1" d="M71.5-42.9l1.1-1c0,0,0.1-1-0.5-1.8s-1.2-0.4-1.2-0.4S70.8-43.5,71.5-42.9z"/>
					<path class="st1" d="M73.5-44.5v-1.8l1.2,0.2l-0.2,2.6C74.5-43.4,73.5-43.1,73.5-44.5z"/>
					<path class="st1" d="M75.3-43.7l0.2-2.2l0.9-0.2c0,0,0.8,2.1,1.1,2.9S75.5-42.4,75.3-43.7z"/>
					<path class="st1" d="M36.5-49.7c0,0-2-2.6-1.2-4.4c2,0.2,3.4-1.4,5.1-0.9s1.8,1.4,1.8,1.4v4C42.1-49.6,38.9-50.5,36.5-49.7z"/>
					<path class="st1" d="M42.1-56.9c-0.1,0.4-3.7,0.1-6.5,1.1c-0.8-1,0-5.1,0.7-5.5c0.7-0.4,1.8-1.8,4-0.8
						C43.2-60.7,43-61.1,42.1-56.9z"/>
					<path class="st1" d="M36.6-63.1c0,0-1.5-2.5-0.1-3s4.8-2,7.2-1.4c-0.1,1.6,0.1,6.6-1.1,5.2C41.2-62.9,40.5-64.6,36.6-63.1z"/>
					<path class="st1" d="M35.2-67.1c0,0-1.5-2.8,0-3.8c1.2-0.6,5.1-1.9,6.5-1.2c1.4,0.7-0.1,2,0.2,3.5C40.6-68,37.4-68.9,35.2-67.1
						z"/>
					<path class="st1" d="M40.6-73.4c0,0-5.9-0.4-7,1.1c-0.2-1.8-1.5-3.9-0.4-5c1.1-0.5,4.7,1.2,6.2-0.9
						C39.8-78.7,42-76.9,40.6-73.4z"/>
					<path class="st1" d="M40.6-1.4c0,0-5.9-0.4-7,1.1c-0.2-1.8-1.5-3.9-0.4-5c1.1-0.5,4.7,1.2,6.2-0.9C39.8-6.7,42-4.9,40.6-1.4z"
						/>
					<path class="st1" d="M38.8-35c0,0,2.5,4.9,0.2,6.4c-1.2-1.2-3.6-1.8-6.4-1.9c-0.6-2.2,0.2-5.6,1.2-6.2
						C35.8-36.1,37.4-34.4,38.8-35z"/>
					<path class="st1" d="M39.5-26.9c0.9,1.1,0.9,2.9,0.4,4.6c-1.5-1.4-3.1-3-5.9-2.8c-0.6-2.6-0.6-3.5-0.3-3.6S38.3-28.7,39.5-26.9
						z"/>
					<path class="st1" d="M34.8-23c0,0-2.7,3.1-1.1,5.7c3.2-1.8,4,0.9,6.1,1.5c0.1-1.1,0.8-3.3,0.3-4.3S36.2-23.6,34.8-23z"/>
					<path class="st1" d="M33.4-14.8c0,0,0.6,1.2-0.1,2.6s0.4,1.4,0.4,1.4s3-1.2,5-0.5c0-1.8-0.9-2.8,0.1-3.5
						C37.3-14.9,36-17.3,33.4-14.8z"/>
					<path class="st1" d="M33-9c0,0,0,2.9,1,2.9s0.8,0.2,3.2-0.1s2.5-1.1,2.5-1.1s-0.4-1.5-0.8-2.8C36.7-9.7,35.3-11.6,33-9z"/>
					<path class="st1" d="M6.2-43.7L6-46.4c0,0,0.7,0.7,2-0.2c1.3-0.8-0.2,0.8,0.2,2.8C8.5-41.7,7.2-43.6,6.2-43.7z"/>
					<path class="st1" d="M9.2-43.1c0,0,1-2.5,0.6-3.5c0.9-0.6,2.5-0.4,3.4,0.5s-1.4,1.4-0.9,2.9S10.4-42.2,9.2-43.1z"/>
					<path class="st1" d="M13.8-42.4c0,0,0-2.9,0.9-3.9c0.8,0.6,2.1,1,3.2,0.6c0.4,0.8-0.2,3.8-1.2,3.8S14.8-43.2,13.8-42.4z"/>
					<path class="st1" d="M18.6-41.9c0,0,1.5-3.2,0.9-3.9c1.1,0.1,1.6-0.9,3,0.6c-0.1,1.1-1.2,4-1.2,4S20.5-42.5,18.6-41.9z"/>
					<path class="st1" d="M22.6-41.9c0,0,1.2-2.5,1-3.2c1.2-0.4,2.9,0,4,0.5c-0.2,1.5,0.4,3.9-0.9,4.4C25.8-41,23.7-39.8,22.6-41.9z
						"/>
					<path class="st1" d="M28.7-39.6c0,0,1.4-3.8,0.4-4.6c1.4,0.1,4.4-0.4,5.1,0.6c-1.2,1.4-2.4,2.9-1.6,4.1
						C31.5-38.6,29.7-39.2,28.7-39.6z"/>
					<path class="st1" d="M43.9-34.4c-0.8,0.7-2.3,0-2.3,0s1.5,2.8,0,5.2c0,0,2.5-0.3,3.7-1C45.7-31.7,44-32.4,43.9-34.4z"/>
					<path class="st1" d="M47.2-31.2c0,0-1.5-1.4-1.7-2.8c0.7,0,2.3-1.2,3.7-0.3s0.8,2.4,0.8,2.4S48-30.6,47.2-31.2z"/>
					<path class="st1" d="M51-34.7c0,0,0.5,1.8,0.5,2.3c0,0,1.7-0.7,2.2-0.2c0.3-0.8,0-1.8-0.7-2.7L51-34.7z"/>
					<path class="st1" d="M55-34.1l-0.7-2.1l1-0.8l2,3.3C57.4-33.8,55.9-33.6,55-34.1z"/>
					<path class="st1" d="M60.3-34.9c0.3,0.8,0.7,1.4,1,1.7c0.3,0.7-2.2,0.3-2.2,0.3s-0.2-0.7-0.5-1.5L60.3-34.9z"/>
					<path class="st1" d="M58.1-35.7c-0.3-0.5-0.6-0.9-0.8-1c0.7-1.2,1.3-1.8,1.8-1.3c0.2,0.2,0.5,0.9,0.8,1.8L58.1-35.7z"/>
					<path class="st1" d="M61.3-35.9c0.3,0.6,0.7,1.1,1.1,1.3c1.3,0.8,2.2-0.2,2.2-0.2l-1.3-1.7L61.3-35.9z"/>
					<path class="st1" d="M62.4-39.1c0-1-2.2-0.8-2.5,0l0.8,2l2-1L62.4-39.1z"/>
					<path class="st1" d="M65.5-35.4c0,0-2.5-3.3-1.8-4.3c0.8,0,2.2-0.7,2.2-0.7s0.2,3.8,1.7,4.2C67.7-35.4,67-35.4,65.5-35.4z"/>
					<path class="st1" d="M68.4-36.7c0,0-1.3-2.3-1-3.3c1-0.8,1.5-0.3,1.5-0.3s1.8,3,0.7,3.3L68.4-36.7z"/>
					<path class="st1" d="M71-37.9l1.5-0.3c0,0-0.3-2.2-1.3-2.8l-1,0.2C70.2-40.9,71.4-39.2,71-37.9z"/>
					<path class="st1" d="M73.2-39.7c0,0-1.4-1.8-0.7-2.3h1l1.2,2C74.7-40.1,73.7-38.4,73.2-39.7z"/>
					<path class="st1" d="M75.7-40.4l-0.8-1.8c0,0,1.7,0.8,2.7,0C78.4-41.1,78-39.4,75.7-40.4z"/>
					<path class="st1" d="M42.5-23.4c0,0,3.8-1.2,4-2.3c-0.7-1.3-1.2-2.5-1-3.3c-2,1.8-3,1.2-3,1.2S40-24.9,42.5-23.4z"/>
					<path class="st1" d="M47.9-27.2L47-29.1c0,0,1.7-0.2,2.5-1s0.7,0.3,1.3,1.5C51.5-27.4,48.7-26.6,47.9-27.2z"/>
					<path class="st1" d="M51.9-28.2l0.2-3.3l2-0.3c0,0,0.5,1.7,1,2.3C55.5-28.9,51.9-28.2,51.9-28.2z"/>
					<path class="st1" d="M56.4-29.7l2.3,0.2c-0.3-0.5-1-2.3-1-2.3s-1.5,0.7-2-0.3S56.4-29.7,56.4-29.7z"/>
					<path class="st1" d="M60.2-29.7l-0.8-1.8c0,0,2-0.2,2.3-0.8c1.5,1.5,0.8,3,0.8,3S61.2-29.2,60.2-29.7z"/>
					<path class="st1" d="M64.4-29.7c0,0,2.2,0.5,3-0.3c-0.7-1.2-1.7-4-1.7-4c-1.2,0.7-1.8,1.5-2.7,1.2
						C63.9-32.6,64.5-30.7,64.4-29.7z"/>
					<path class="st1" d="M69-30.2c0,0-2-2.6-1.7-3.1c1-0.2,2.1-1.5,2.1-1.5c1,1-1.1,2.3,2.2,3.7C70.7-30.2,69.7-29.9,69-30.2z"/>
					<path class="st1" d="M73-31.7c0,0-2.3-2.3-2.2-3.2c0.2-0.8,0.5-1.5,0.5-1.5l1.7-0.3l1.8,4C74.9-32.7,73.7-31.2,73-31.7z"/>
					<path class="st1" d="M74.5-36.6c0,0,1.5,0.7,1.5,3c1.5-0.2,2.2-1.5,2.2-1.5l-1.3-4.2C76.9-39.2,73-38.4,74.5-36.6z"/>
					<path class="st1" d="M3.3-43.7l0.3-2.2l0.9-0.2c0,0,0.8,2.1,1.1,2.9S3.6-42.4,3.3-43.7z"/>
					<path class="st1" d="M3.8-40.4L3-42.2c0,0,1.7,0.8,2.7,0C6.4-41.1,6.1-39.4,3.8-40.4z"/>
					<path class="st1" d="M2.6-36.6c0,0,1.5,0.7,1.5,3c1.5-0.2,2.2-1.5,2.2-1.5L5-39.3C4.9-39.2,1.1-38.4,2.6-36.6z"/>
					<path class="st1" d="M30.5-30.9c0,0-2.8-1.2-4-2.3c-0.5-1.7,0.9-4.7,1.5-5.4c2.3,1.2,3.5,0.8,3.5,0.8
						C30.5-36.2,30-33.6,30.5-30.9z"/>
					<path class="st1" d="M24.7-34.9c0,0-3.2-1.2-4.2-0.7c0.7-1.5,1.2-4.5,1.8-4.7c1.8,1.2,2.3,1.3,3.7,0.8
						C26.2-37.7,24.7-34.9,24.7-34.9z"/>
					<path class="st1" d="M18.9-35.6c0,0,0.5-4,2.3-4.5c-1.2-0.3-3.5-0.2-3.5-0.2s-2.3,3-1.1,5C17.2-36.2,18.9-35.6,18.9-35.6z"/>
					<path class="st1" d="M14.4-35.1c0,0-1.7,0.8-2.3,0c-0.7-0.8,1.1-2.8,1.1-2.8l2.2,1C15.4-36.9,15.7-36.1,14.4-35.1z"/>
					<path class="st1" d="M15.4-38.1l1-3c0,0-2.2,0-2.7,0s-1,2.3-1,2.3S14.5-39.6,15.4-38.1z"/>
					<path class="st1" d="M10.2-35.4c0,0-2.7,0.8-2.8-0.5s-0.7-3.2-0.7-3.2l4,0.5C10.7-38.6,12.2-36.9,10.2-35.4z"/>
					<path class="st1" d="M10.9-39.6c0,0,0.8-1.8,0.3-1.7c-0.5,0.2-2,0-2,0L9-39.6H10.9z"/>
					<polygon class="st1" points="7.7,-39.7 7,-40.4 6.5,-42.1 7.9,-41.6 					"/>
					<path class="st1" d="M31.2-25.4c0,0-4.2-1-5.3,0.5c0-2.7,0.3-6.7,0.3-6.7s3,2.8,4.3,2.2C30.5-29.4,32.2-27.4,31.2-25.4z"/>
					<path class="st1" d="M24.2-24.4c0,0-3.2,1.8-4.3,0.7c-0.3-1.7-1.2-3-0.3-4.5c1.5,0,4.5-1.6,4.5-0.5
						C24-26.7,25.4-26.1,24.2-24.4z"/>
					<path class="st1" d="M24-30.2c0,0-3.2-0.7-4.7,0.5c0-2,0.2-3.8,1.5-4.5c2,0.2,3.2,0.7,3.2,0.7S22.9-31.6,24-30.2z"/>
					<path class="st1" d="M18.5-23.1c-2.2,0.6-5.9,0.8-5.2-0.8c-0.2-1.5,0.1-4.5,0.1-4.5c1.8,0.5,4.2,0,4.2,0S16.8-25.5,18.5-23.1z"
						/>
					<path class="st1" d="M17.9-30.4c0,0-3.5,0.8-4-0.3c0.2-0.8,0.7-2.7,0.7-2.7s2.8,0.8,4-0.7C18.7-32.9,17.9-30.4,17.9-30.4z"/>
					<path class="st1" d="M11.5-25.2c0,0-2.6,0.3-3.2-1.1c0.2-1.4,0.4-2.6,0.4-2.6l3,0.5C11.7-28.4,12.5-26.4,11.5-25.2z"/>
					<path class="st1" d="M12-30.1c0,0-2.5,0.5-2.7-0.5s0.3-3,0.3-3s1.5,1,2.5,0.3C13.2-33.9,13.4-31.7,12-30.1z"/>
					<path class="st1" d="M7.2-27.5c0,0,1.8-2,0.5-2.7s-2-0.5-2-0.5l-0.8,2.2C4.9-28.5,5.8-27.4,7.2-27.5z"/>
					<path class="st1" d="M8-32.1l0.2-1.2c0,0-1.2-0.7-2,0.2l-0.5,0.8C5.7-32.2,6.9-32.6,8-32.1z"/>
					<path class="st1" d="M3.6-28.4c0,0-1.7,0.8-2.5-0.2c-0.3-1,0.7-2.4,0.7-2.4s2.3,0.1,2.6-0.7C3.7-30.6,3.6-28.4,3.6-28.4z"/>
					<path class="st1" d="M75.6-28.4c0,0-1.7,0.8-2.5-0.2c-0.3-1,0.7-2.4,0.7-2.4s2.3,0.1,2.6-0.7C75.7-30.6,75.6-28.4,75.6-28.4z"
						/>
					<path class="st1" d="M71.5-27.4c0,0-1.8,1-3,0.3l0.3-1.5c0,0,2-0.3,2.5-1.2C72-28.7,71.5-27.4,71.5-27.4z"/>
					<path class="st1" d="M66.5-26.9l-1.8-0.3v-1.3c0,0,1.8,0.3,2.5-0.2L66.5-26.9z"/>
					<path class="st1" d="M63.2-26.9c0,0-2.7,2.2-3.7,1.7c0.2-0.7,0.7-2,0.7-2.7c0.8,0,2.5-0.5,2.5-0.5L63.2-26.9z"/>
					<path class="st1" d="M58.9-27.7c0,0,0,1.8-0.8,2.7c-0.7,0.3-2.5,0.3-2.5,0.3c0.3-1.5,0-3.3,0.8-3.3
						C57.2-28.1,58.9-27.7,58.9-27.7z"/>
					<path class="st1" d="M54.4-27.4c0,0-1,2.2-0.2,3c0,0.8-0.3,1.3-2.2,1.5c-0.5-2.2,0.5-4.2,0.5-4.2L54.4-27.4z"/>
					<path class="st1" d="M50.7-26.4c0,0-1.3,2.7,0,3.5c-1,1.5-2,0.3-2,0.3l-1-2.2C47.7-24.7,47.5-25.9,50.7-26.4z"/>
					<path class="st1" d="M47.7-21.6c0,0-1,1.2-2,0.7S45-23.2,45-23.2l1.5-0.7C46.5-23.9,47-21.6,47.7-21.6z"/>
					<path class="st1" d="M42.4-20.7c0,0,1,1.2,2.2,0.5c0,0-1-1.3-0.7-2.2l-1.5-0.2V-20.7z"/>
					<path class="st1" d="M42.4-15.4c0,0-0.7-3,0.2-3.7c0.8,1,2,0.8,2.7,0c1.5,1.7,2.2,3.3,1.3,3.5C45.7-15.4,43.4-14.9,42.4-15.4z"
						/>
					<path class="st1" d="M48-17.2c0,0-2.2-2.3-1.3-2.7c2.2-0.2,2.5-0.8,3.5-1.2c1-0.3,0.7,3.2,2,2.8C51.7-17.2,48.9-16.2,48-17.2z"
						/>
					<path class="st1" d="M52.4-21.2c0,0,0.2,2.7,1.2,2.8s2.3-1.2,2.3-1.2l-1-2.8C54.9-22.4,53.9-20.9,52.4-21.2z"/>
					<path class="st1" d="M57-20.2c0,0,0.2-2.8-0.8-3.2c1.8,0.5,2.5-0.2,2.5-0.2l1.3,3C60-20.6,58.9-19.2,57-20.2z"/>
					<path class="st1" d="M61.2-20.9l-1-3.3c0,0,1.7,0.5,3-1c1.3,1,1.2,2.8,1.2,2.8S62.5-20.2,61.2-20.9z"/>
					<path class="st1" d="M66.2-22.4c0,0,0.3-1.7-1.3-3.2c1.7,0.5,2.5-0.2,2.5-0.2l1,3C68.4-22.7,67-21.1,66.2-22.4z"/>
					<path class="st1" d="M69.5-23.1l-0.2-2.7c0,0,2.3,0.2,2.7-0.7c1,1.5,0.8,3.7,0.8,3.7S71-20.6,69.5-23.1z"/>
					<path class="st1" d="M77.4-23.2c0,0-2.5,0.8-3.2,0c0.7-1.5-0.2-3.5-0.2-3.5c2.2,0.2,3,0.2,3,0.2S79.4-26.2,77.4-23.2z"/>
					<path class="st1" d="M5.3-23.2c0,0-2.5,0.8-3.2,0c0.7-1.5-0.2-3.5-0.2-3.5c2.2,0.2,3,0.2,3,0.2S7.3-26.2,5.3-23.2z"/>
					<path class="st1" d="M7.5-23c0,0,2.8,1.3,3.8,0.4c0.5-1,0.1-1.4,0.1-1.4s-2.5,0-3.1-1C7.4-23.9,7.5-23,7.5-23z"/>
					<path class="st1" d="M31.6-18c0,0-1.4-3.4,0.1-5.4c-1.4-0.1-4-2.4-5.6,0.8c-0.4,1,0.1,2.6,0.1,2.6S29.5-20,31.6-18z"/>
					<path class="st1" d="M24.6-20c0,0-0.8-2.6-0.2-3.4c-1.8,1.2-2.6,1.5-3.9,1.1c-0.2,1.6-1,2.6,0.2,3.6
						C22.1-18.7,23.8-18.8,24.6-20z"/>
					<path class="st1" d="M19.1-18.5c0.2-0.4-1.4-1.4-0.5-3.1c-1.2-0.1-5.4,1-5.2-0.1c0,2,1.8,4.4,2.2,4.8
						C16.6-17.7,18.4-17,19.1-18.5z"/>
					<path class="st1" d="M13.5-16.5c0,0-2.6,2.2-3.6,1c-0.8-0.9-0.4-2.6-0.4-2.6s1.5,0.2,2.1-0.8C12.1-18.4,11.9-16.7,13.5-16.5z"
						/>
					<path class="st1" d="M11.1-19.8L11-21.1c0,0-2.5,0.4-3.2-0.5c0,1.1,1.2,2.2,1.2,2.2S9.8-18.8,11.1-19.8z"/>
					<path class="st1" d="M49.6-56.2c0,0-0.9-3.5,0.5-4.4c1.7,0.1,3.2-0.3,4.4,0.9c-0.4,1.4,0.3,4.8-0.7,4.5
						C51.9-55.8,50.9-54.7,49.6-56.2z"/>
					<path class="st1" d="M55.2-54.9c0,0,1.5-2.9,0.7-4.6c1.9,0.5,3.7,1.2,3.9,2.6c-0.7,1.9-1.3,2.1-1.3,2.1S56.8-55.6,55.2-54.9z"
						/>
					<path class="st1" d="M49.9-62.1c0-2.3,0.8-5.9,2.1-4.9c1.5,0.2,4.3,1.3,4.3,1.3c-1,1.6-1.1,4-1.1,4S52.5-63.1,49.9-62.1z"/>
					<path class="st1" d="M57-60.8c0,0,0.1-3.6,1.4-3.8c0.8,0.4,2.4,1.3,2.4,1.3s-1.5,2.5-0.4,4C59.2-59.3,57-60.8,57-60.8z"/>
					<path class="st1" d="M53.7-68.2c0,0,0.4-2.6,1.9-2.8c1.3,0.5,2.4,1,2.4,1l-1.3,2.8C56.7-67.2,54.6-67,53.7-68.2z"/>
					<path class="st1" d="M58.2-66.5c0,0,0.2-2.5,1.2-2.4s2.8,1.1,2.8,1.1s-1.4,1.2-1,2.3C61.6-64.4,59.5-64.8,58.2-66.5z"/>
					<path class="st1" d="M51.4-71.8c0,0-0.8,1.5-0.1,2.6c0.8,0.7,1.3,0.5,1.3,0.5s0.1-2.1,1.2-2.4C52.9-72.3,51.4-71.8,51.4-71.8z"
						/>
					<path class="st1" d="M44.5-56.8c0,0,3.5-0.2,4.1,0.4c-0.7-2-0.8-2.9-0.1-4c-1.5-0.7-2.3-1.7-3.6-0.7
						C44.6-59.8,43.5-57.9,44.5-56.8z"/>
					<path class="st1" d="M45.2-62.7c-0.1,0.4,1.7-1,3.1,0.3c0.4-1.2,0.4-5.4,1.5-5c-1.9-0.5-4.7,0.5-5.2,0.9
						C45-65.3,45.8-64.5,45.2-62.7z"/>
					<path class="st1" d="M10.6-52.3l-1.4,0.2c0,0-0.4-1.8-1.5-2.3c1.1-0.3,3.1-0.9,3.1-0.9S11.2-53.9,10.6-52.3z"/>
					<path class="st1" d="M8.5-15.3c0,0-2.1,0.8-2.5,0.2c-0.5-1-0.1-3-0.1-3c1,0.1,2.2,0,2.2,0S6.4-16.3,8.5-15.3z"/>
					<path class="st1" d="M6.9-19.3c0,0-1-1.6-0.5-2.5c-1.1-0.4-2-1-2.9-0.2c0,1.1,0.1,2.6,1.1,2.6L6.9-19.3z"/>
					<path class="st1" d="M5.1-18.1H3.2c-0.6,1-0.6,2.9,0,3.4c1.1,0.1,1.1,0.1,1.1,0.1S4-17.4,5.1-18.1z"/>
					<path class="st1" d="M78.8-19.3c0,0-1-1.6-0.5-2.5c-1.1-0.4-2-1-2.9-0.2c0,1.1,0.1,2.6,1.1,2.6L78.8-19.3z"/>
					<path class="st1" d="M77-18.1h-1.9c-0.6,1-0.6,2.9,0,3.4c1.1,0.1,1.1,0.1,1.1,0.1S75.9-17.4,77-18.1z"/>
					<path class="st1" d="M41.2-10.7c0,0-1.4-2.6-0.6-3.4c1.8,0.5,5.4,0.9,6.2,0.1c0.2,1.1,1.5,2.6,0.4,3.4S42.8-9.3,41.2-10.7z"/>
					<path class="st1" d="M49.6-11.3c0,0,0.1-3.5-0.9-3.9c1.8-0.4,3.4-0.6,4.1-1.8c0.2,1.2,0.6,2.9,1,3.8S50.5-10.8,49.6-11.3z"/>
					<path class="st1" d="M55.3-13.5c0,0-0.1-2.6-0.8-3.2c1.4-0.8,2.5-1.5,2.5-1.5s2.6,3.1,1.2,4.8C57.8-14,56.1-12.9,55.3-13.5z"/>
					<path class="st1" d="M59.9-12.7c0,0,1.8,1.6,2.8,0.9c0.5-1.2,0.4-3.6,0.4-3.6c-1,0.2-2.8,0-2.8,0S61-13.1,59.9-12.7z"/>
					<path class="st1" d="M59.5-16.7l-1-2c0,0,1.9-0.1,2.5-0.8c1.4,1,1.8,2.8,1.8,2.8S61.8-16.1,59.5-16.7z"/>
					<path class="st1" d="M64-17.4c0.1-0.8-0.2-1.8-1.1-2.5c1.8-0.5,2.8-1.5,2.8-1.5s1.5,1.6,0.8,3S64.6-16.8,64-17.4z"/>
					<path class="st1" d="M64.3-15.5c0,0,1.9-0.1,2.2-0.9c0.9,1.2,1.8,3.7,1.1,4.1c-1.5,1-3.1,0.1-3.1,0.1S65.3-14.1,64.3-15.5z"/>
					<path class="st1" d="M69.4-12.8c0,0,0.1-2.2-0.5-3.1c1.5-0.5,2.4-1.1,2.4-1.1s1.4,1.2,0.6,2.9L69.4-12.8z"/>
					<path class="st1" d="M73-14.8l1-0.4c0,0-0.6-2.9,0.1-3.2l-1.9,0.8C72.3-17.7,73.8-15.1,73-14.8z"/>
					<path class="st1" d="M68.1-18l2.6-0.6c0,0-0.5-2.4-0.9-2.8c0,0-1.9,1-2.6,0.5C67.3-20.9,68.8-18.5,68.1-18z"/>
					<path class="st1" d="M28.1-69c0,0,0.8-1.9,0.4-3.3c-0.6,0.3-3.1-0.3-3.9,1c0.4,1,0.7,2.8,0.7,2.8S27.6-68,28.1-69z"/>
					<path class="st1" d="M23.1-70.7c0,0,0.3,1.9,0.5,2.3c0,0-1.8,0.1-2.1,0.7c-0.6-0.5-0.8-1.2-0.5-2.2L23.1-70.7z"/>
					<path class="st1" d="M14.6-67.1c0,0.8,0,1.6-0.3,1.9c0,0.7,2.1-0.6,2.1-0.6s-0.1-0.7-0.1-1.6L14.6-67.1z"/>
					<path class="st1" d="M29-65.1v-2c0,0-1.6,0.5-2.7,0.1s-0.5,0.6-0.6,1.9C25.6-63.7,28.5-64.1,29-65.1z"/>
					<path class="st1" d="M25-64.4l-1.5-3l-2,0.5c0,0,0.2,1.7,0,2.5C21.4-63.5,25-64.4,25-64.4z"/>
					<path class="st1" d="M20.3-63.9l-2.1,1c0.1-0.6,0-2.5,0-2.5s1.6,0,1.7-1.1C19.9-67.6,20.3-63.9,20.3-63.9z"/>
					<path class="st1" d="M16.7-62.4v-2c0,0-1.9,0.6-2.5,0.2c-0.8,2,0.4,3.1,0.4,3.1S16-61.5,16.7-62.4z"/>
					<path class="st1" d="M12.9-60.7c0,0-1.8,1.3-2.9,0.9c0.1-1.3-0.1-4.3-0.1-4.3c1.3,0.1,2.3,0.6,2.9,0
						C12.2-63.5,12.4-61.6,12.9-60.7z"/>
					<path class="st1" d="M8.4-59.3c0,0,0.8-3.2,0.3-3.5c-1,0.2-1.9-0.1-1.9-0.1c-0.5,1.3,2,0.9-0.5,3.5C7.6-59,8-58.8,8.4-59.3z"/>
					<path class="st1" d="M12.1-57.3l1.5-1l-0.5-1.2c0,0-1.5,1-2.4,0.8L12.1-57.3z"/>
					<path class="st1" d="M15.1-58.6c0,0,3.3,0.9,4,0.1c-0.4-0.5-1.4-1.6-1.7-2.2c-0.8,0.3-2.5,0.5-2.5,0.5L15.1-58.6z"/>
					<path class="st1" d="M18.8-61.1c0,0,0.7,1.7,1.8,2.1c0.7,0,2.4-0.7,2.4-0.7c-0.9-1.2-1.3-3.1-2.1-2.7
						C20.2-62.1,18.8-61.1,18.8-61.1z"/>
					<path class="st1" d="M23-62.6c0,0,1.8,1.6,1.4,2.7c0.3,0.8,0.8,1.1,2.6,0.5c-0.4-2.2-2.1-3.6-2.1-3.6L23-62.6z"/>
					<path class="st1" d="M26.8-63.2c0,0,2.3,1.9,1.4,3.2c1.5,1,2-0.5,2-0.5v-2.4C30.2-62.8,29.9-64,26.8-63.2z"/>
					<path class="st1" d="M31.5-59.9c0,0,1.4,0.7,2.1-0.2c0.7-0.9-0.3-2.4-0.3-2.4h-1.6C31.6-62.5,32.1-60.2,31.5-59.9z"/>
					<path class="st1" d="M32.9-55.8c0,0,1.1-3,0.2-3c-2.1,0.7-2.6,0.2-3.7,0.3c-1,0.1,0.7,3.2-0.7,3.4
						C29.5-54.4,32.5-54.6,32.9-55.8z"/>
					<path class="st1" d="M27.3-57.8c0,0,0.9,2.5,0.1,3.1s-2.6-0.1-2.6-0.1l-0.2-3C24.6-57.8,26.1-56.9,27.3-57.8z"/>
					<path class="st1" d="M23.5-55c0,0-1.3-2.5-0.5-3.2c-1.5,1.2-2.4,0.8-2.4,0.8v3.3C20.6-54.1,22.2-53.3,23.5-55z"/>
					<path class="st1" d="M19.4-53.9L19-57.4c0,0-1.3,1.1-3.1,0.3C15.1-55.6,16-54,16-54S18.4-52.8,19.4-53.9z"/>
					<path class="st1" d="M14.2-53.3c0,0-1-1.4,0-3.4c-1.3,1.1-2.4,0.8-2.4,0.8l0.3,3.1C12.1-52.7,14-51.7,14.2-53.3z"/>
					<path class="st1" d="M33.8-49.7c0,0-1.5-3.2-0.8-3.9c-1.8,0.4-3.3,0.8-4.5,0c0.3,1.2,0.6,2.9,0.6,3.8
						C29.2-48.8,33.2-48.9,33.8-49.7z"/>
					<path class="st1" d="M27.8-49.5c0,0-0.9-2.5-0.6-3.3c-1.6-0.1-2.9-0.4-2.9-0.4s-1.2,3.9,0.8,4.9C25.3-49,27.2-48.6,27.8-49.5z"
						/>
					<path class="st1" d="M22.6-50.7l0.1-2.2c0,0-1.8,0.6-2.6,0.3c-0.9,1.5-0.5,3.2-0.5,3.2S20.8-49.3,22.6-50.7z"/>
					<path class="st1" d="M18.2-49.6c-0.4-0.6-0.5-1.7,0-2.7c-1.8,0.2-3.1-0.3-3.1-0.3s-1.5,1.9-0.2,2.8
						C16.1-48.8,17.9-48.8,18.2-49.6z"/>
					<path class="st1" d="M13.8-47.8l-3.1-0.5c0,0,0.4-2.1,0.6-2.6c0,0,2.1,0.2,2.6-0.6C13.8-51.5,13-48,13.8-47.8z"/>
					<path class="st1" d="M72.3-18.9c0,0,1.9-1,2.6-0.8c0,0-1.4-1.4-0.9-2.2l-2.5,1C71.5-20.9,72.5-19.3,72.3-18.9z"/>
					<path class="st1" d="M31.8-10.1c0,0-2.1,0.2-3.8-1l0.9-3.6c0,0,1.5,0.5,2.5,0.4C32.4-14.4,32.9-10.9,31.8-10.1z"/>
					<path class="st1" d="M28.4-15.9l3.6,0.6l-0.6-1.8c0,0-2.6-0.9-3.2-1.1S28.4-15.9,28.4-15.9z"/>
					<path class="st1" d="M27.1-10.9c0,0-1.8,0.6-3.5-0.8l-0.2-2.4c0,0,2-1.4,3.4-0.9C27-14.1,27.1-10.9,27.1-10.9z"/>
					<path class="st1" d="M26.6-16.4c0,0,0-1.5-0.8-2.1c-1.4,0.1-3.4,1.1-4,0.9c0.5,0.9,1.5,1.6,1.5,1.6S25.1-16.1,26.6-16.4z"/>
					<path class="st1" d="M22.2-11.3l-2.9-0.5c0,0-0.8-1.4-0.2-2l2.5-0.2C21.6-14,23-12.3,22.2-11.3z"/>
					<path class="st1" d="M21.1-15.5c0.4-0.4-1.1-1.6-1.1-1.6s-2.8,0.9-3.4,0.8c0.4,1,2.2,1.8,2.2,1.8S20.6-15,21.1-15.5z"/>
					<path class="st1" d="M17.8-11.1l-2-0.1l-0.3-1.7l1.9-0.6C17.4-13.5,18.4-11.5,17.8-11.1z"/>
					<path class="st1" d="M14.9-14l-1.2-1.2c0,0,0.8-0.6,1.5-0.8s1.4,1.1,1.4,1.1L14.9-14z"/>
					<path class="st1" d="M14.4-11.3c-0.4,0.1-2.6-0.5-2.6-0.5l0.4-0.9l2.1,0.1L14.4-11.3z"/>
					<polygon class="st1" points="11.8,-13.7 11.4,-14.5 12.6,-15 13.6,-13.9 					"/>
					<polygon class="st1" points="10.2,-11.1 8.4,-11 8.6,-12.4 10.8,-13 					"/>
					<polygon class="st1" points="8.4,-13.1 7.9,-14.3 9.5,-14.7 9.9,-13.8 					"/>
					<path class="st1" d="M7.1-11.7l-1.6-0.2L5.6-14h1.1C6.8-14,7.8-12.1,7.1-11.7z"/>
					<path class="st1" d="M4.2-11.9H3c0,0-0.5-1.2,0.1-1.9h1.5C4.6-13.8,3.6-12.5,4.2-11.9z"/>
					<path class="st1" d="M76.3-11.9H75c0,0-0.5-1.2,0.1-1.9h1.5C76.6-13.8,75.6-12.5,76.3-11.9z"/>
					<path class="st1" d="M31.9-5.7c0,0-1.1-3.2-0.4-3.5c-1.6-0.2-3.9,0.4-4.8-0.5c0.4,1.1-0.6,3.9-0.6,3.9S30.5-4.3,31.9-5.7z"/>
					<path class="st1" d="M25.9-9.5L25-6.3l-2.1-0.1l0.4-3.2C23.2-9.7,24.1-10.3,25.9-9.5z"/>
					<path class="st1" d="M22.2-10.1c0,0-1.6,0.9-2.6-0.1c-0.1,0.8,0,3.2,0,3.2s1.9,1.2,2.1,0.5L22.2-10.1z"/>
					<path class="st1" d="M18.2-7.7L16-8.4l0.1-2.1c0,0,2-0.4,2.2,0.4C18.5-9.8,18.8-7.9,18.2-7.7z"/>
					<path class="st1" d="M14.1-8.8L12-9.3c0,0-1-1.2,0-1.5l2.4,0.2C14.4-10.5,15-8.5,14.1-8.8z"/>
					<path class="st1" d="M10.4-9.3L8-8.3c0,0-1-1.4-0.2-1.9s2.4,0,2.4,0L10.4-9.3z"/>
					<path class="st1" d="M6.5-8c0,0-0.8-1.5,0.2-2.5c0,0-2-1.8-3.1,0L3.2-8.1C3.2-8.1,4.9-7,6.5-8z"/>
					<path class="st1" d="M78.5-8c0,0-0.8-1.5,0.2-2.5c0,0-2-1.8-3.1,0l-0.4,2.4C75.3-8.1,76.9-7,78.5-8z"/>
					<path class="st1" d="M25.1-5.4l-0.6,2.1c0,0-2.1,0.2-2.2-0.6s0.2-1.5,0.2-1.5H25.1z"/>
					<path class="st1" d="M21.4-5.5L21-3.4c0,0-2.1,0.1-2.6-0.6s1.2-2,1.2-2S20.8-5.1,21.4-5.5z"/>
					<path class="st1" d="M17.4-4.5c0,0-0.2-1.8,0.5-2.1c-0.9-0.6-2-0.9-2-0.9l-1.5,2.2C14.4-5.3,16.4-3.4,17.4-4.5z"/>
					<path class="st1" d="M14-6.8l-0.1-1.1l-2-0.4c0,0-1.5,1.9-0.9,1.9S12.6-6.7,14-6.8z"/>
					<path class="st1" d="M10-6.8L9.9-7.9l-2,0.6L7.6-6.5C7.6-6.4,9-5.3,10-6.8z"/>
					<path class="st1" d="M6.5-5.4c0-0.4,0-1.4,0-1.4S4.1-6,3.5-6.9L2.9-4.1C2.9-4.1,6.9-2.1,6.5-5.4z"/>
					<path class="st1" d="M78.5-5.4c0-0.4,0-1.4,0-1.4s-2.4,0.8-3-0.1l-0.6,2.8C74.9-4.1,78.9-2.1,78.5-5.4z"/>
					<path class="st1" d="M41.9-7c0,0-0.6-1.5-0.1-2c1.8,0.6,4.6,0,5.8-0.6l0.2,1.1C47.8-8.5,43.4-5.9,41.9-7z"/>
					<path class="st1" d="M50.1-9.4v-0.8c0,0,4.3-0.5,4.4-1.6c0.8,1.4,0.5,3,0.5,3S51-7,50.1-9.4z"/>
					<path class="st1" d="M56.6-9.5c0,0,0.4-1.9-0.2-2.5c0.8-0.1,2.8-0.6,2.8-0.6l0.6,3.4C59.8-9.3,57.4-8.3,56.6-9.5z"/>
					<path class="st1" d="M60.9-10.9c0,0,1.4,0.8,1.9,0.1L63-9.2l-1.9-0.5L60.9-10.9z"/>
					<path class="st1" d="M64.5-9.7l0.1-1.4c0,0,1.9,0.4,2.6-0.2l0.5,1.2C67.8-10,64.9-8.8,64.5-9.7z"/>
					<path class="st1" d="M69.4-10.5v-1.4c0,0,2.1-0.2,2.4-0.9l0.6,2C72.4-10.8,70.1-8.9,69.4-10.5z"/>
					<polygon class="st1" points="73.5,-11.5 74.3,-11.9 74.3,-13.8 72.9,-13.3 					"/>
					<path class="st1" d="M42.5-1.9c0,0,0.5-3.2,0-3.8c2.5-0.1,6-1.5,6-1.5s2.1,4.4,1.1,5.1C48.6-1.3,43.2-0.9,42.5-1.9z"/>
					<path class="st1" d="M51.4-3c-0.3-0.4-0.5-4.1-0.5-4.1s3.5,0.2,4.4-0.5L57.2-4C57.1-4,52.3-1.5,51.4-3z"/>
					<path class="st1" d="M57.6-7l0.6,3.4c0,0,3.1,0.2,3.1-1.1c0-0.6-0.9-3.1-0.9-3.1S58.8-6.1,57.6-7z"/>
					<path class="st1" d="M57.6-79l0.6,3.4c0,0,3.1,0.2,3.1-1.1c0-0.6-0.9-3.1-0.9-3.1S58.8-78.1,57.6-79z"/>
					<path class="st1" d="M62-8l0.6,2.5c0,0,0.8,0.4,2.1-0.6l-0.5-2.2L62-8z"/>
					<path class="st1" d="M65.9-6.8l3.5-0.9l-0.5-1.1l-2.8,0.2C66.1-8.5,65.4-6.5,65.9-6.8z"/>
					<path class="st1" d="M71.1-7.7l3.1-0.6c0,0,0.4-1.4,0.5-2c-1-0.2-4.2,1.4-4.2,1.4L71.1-7.7z"/>
					<path class="st1" d="M73.5-4.1c0,0,1-1.9,0.9-3c-1.6,0.4-2.1,0.9-3.1,0.5L71.4-4C71.4-4,73.1-3.5,73.5-4.1z"/>
					<path class="st1" d="M69.9-4.5l-0.4-2.1c0,0-2.5,1.8-3.2,1.1l-0.1,2C66.1-3.5,68.5-2.8,69.9-4.5z"/>
					<path class="st1" d="M65.1-3.7v-1.5c0,0-2,1.6-2.5,0.8l-0.2,1.2L65.1-3.7z"/>
					<path class="st1" d="M25.1-77.4l-0.6,2.1c0,0-2.1,0.2-2.2-0.6s0.2-1.5,0.2-1.5H25.1z"/>
					<path class="st1" d="M21.4-77.5L21-75.4c0,0-2.1,0.1-2.6-0.6c-0.5-0.7,1.2-2,1.2-2S20.8-77.1,21.4-77.5z"/>
					<path class="st1" d="M17.4-76.5c0,0-0.2-1.8,0.5-2.1c-0.9-0.6-2-0.9-2-0.9l-1.5,2.2C14.4-77.3,16.4-75.4,17.4-76.5z"/>
					<path class="st1" d="M78.5-77.4c0-0.4,0-1.4,0-1.4s-2.4,0.8-3-0.1l-0.6,2.8C74.9-76.1,78.9-74.1,78.5-77.4z"/>
					<path class="st1" d="M42.5-73.9c0,0,0.5-3.2,0-3.8c2.5-0.1,6-1.5,6-1.5s2.1,4.4,1.1,5.1C48.6-73.3,43.2-72.9,42.5-73.9z"/>
					<path class="st1" d="M51.4-75c-0.3-0.4-0.5-4.1-0.5-4.1s3.5,0.2,4.4-0.5l1.9,3.6C57.1-76,52.3-73.5,51.4-75z"/>
					<path class="st1" d="M73.5-76.1c0,0,1-1.9,0.9-3c-1.6,0.4-2.1,0.9-3.1,0.5l0.1,2.6C71.4-76,73.1-75.5,73.5-76.1z"/>
					<path class="st1" d="M69.9-76.5l-0.4-2.1c0,0-2.5,1.8-3.2,1.1l-0.1,2C66.1-75.5,68.5-74.8,69.9-76.5z"/>
					<path class="st1" d="M65.1-75.7v-1.5c0,0-2,1.6-2.5,0.8l-0.2,1.2L65.1-75.7z"/>
					<path class="st1" d="M42.1-43.5c0,0,1.2-3.4,0.9-4.8c1.2-0.5,2.5-1.5,2.9-1.5s0.8,4.9-0.2,6C45.6-43.8,42.5-42.3,42.1-43.5z"/>
					<path class="st1" d="M46.9-43.5l2.5-0.1c0,0,1.6-7,0.9-7.4l-3,1C47.2-50,49.2-45.1,46.9-43.5z"/>
					<path class="st1" d="M50.9-43.9c0,0,1.6,0.6,2.1-0.1c-0.4-0.9,0.5-2.9,0.5-2.9s-1.4,1.1-2.1,0.6S51.9-44.4,50.9-43.9z"/>
					<path class="st1" d="M51.4-47.8c0,0,2.1,0.2,2.5-0.4l0.2-3.2l-2.5,0.2C51.6-51.1,52.8-49.7,51.4-47.8z"/>
					<polygon class="st1" points="54.8,-44.1 54.5,-46.4 57,-47.3 56.5,-44.1 					"/>
					<polygon class="st1" points="55.3,-48.1 57.6,-48.3 57.8,-51.3 55.8,-51.4 					"/>
					<polygon class="st1" points="58.6,-44.9 60.3,-45.3 59.4,-47.1 58.5,-47.4 					"/>
					<polygon class="st1" points="58.8,-48.5 59.9,-48.4 60.8,-51.3 59,-51.3 					"/>
					<path class="st1" d="M61.5-45.9c0,0,1.1-0.9,2-0.6c0.1-1.2-0.4-1.9-0.4-1.9S61.2-48,61-47.5C61-47.5,60.9-45.9,61.5-45.9z"/>
					<path class="st1" d="M61.5-49c0,0,1.1-0.8,1.9-0.2c0.6-0.8,0.1-1.2,0.1-2.4c-0.5-0.1-2-0.2-2-0.2S62.6-51.7,61.5-49z"/>
					<path class="st1" d="M64.9-46.9c0,0,2,0.6,2.4,0c0.2-1,0-2.2,0-2.2l-2.5,0.5C64.8-48.7,65.5-47.3,64.9-46.9z"/>
					<path class="st1" d="M65-49.9l2.1-1.1c0,0,0.5-1.5-0.4-1.9c-1.4,0.8-2.1,1-2.1,1S66.1-51,65-49.9z"/>
					<path class="st1" d="M68.8-47c0,0,1.6,0.2,2.1-0.1L70.4-49l-2.1-0.2L68.8-47z"/>
					<polygon class="st1" points="68.6,-50.4 70.4,-50.1 70.6,-51.5 68.6,-51.8 					"/>
					<path class="st1" d="M68.5-52.8l-0.2-0.6l2-0.8c0,0,0.9,0.8,0.2,1.1C69.8-52.8,68.5-52.8,68.5-52.8z"/>
					<path class="st1" d="M72.3-47.5c0,0,0.8-2.9-0.2-3.9c2-0.2,2.4-1.1,3.8,0c0.6,0.6,1,4.4-0.6,4S72.3-47.5,72.3-47.5z"/>
					<path class="st1" d="M72-52.3c0,0-0.1-1.6-0.9-2.2c0,0,0.4-1.2,1.8-1c1.4,0.2,1.4-0.4,1.4-0.4s0.9,2.9,0.2,2.9S72-52.3,72-52.3
						z"/>
					<path class="st1" d="M75.4-53.1v-3.2c0,0,0.5-0.6,1.5-0.1s0.9,3,0.9,3S76.5-52.9,75.4-53.1z"/>
					<path class="st1" d="M0.2-47.5c0,0,0.8-2.9-0.2-3.9c2-0.2,2.4-1.1,3.8,0c0.6,0.6,1,4.4-0.6,4S0.2-47.5,0.2-47.5z"/>
					<path class="st1" d="M3.4-53.1v-3.2c0,0,0.5-0.6,1.5-0.1s0.9,3,0.9,3S4.5-52.9,3.4-53.1z"/>
					<path class="st1" d="M34.1-45.1c0,0,0.4-2.6-0.1-3.1c-1,0.5-4.5,0.5-4.6,0.1l0.2,3C29.6-45.1,32.8-46.1,34.1-45.1z"/>
					<polygon class="st1" points="27.6,-46 27.4,-48 24.2,-47.5 23.9,-46.4 					"/>
					<polygon class="st1" points="22.4,-47 22.6,-49.4 19.5,-48.3 19.5,-46.8 					"/>
					<path class="st1" d="M17.8-46.8L15.4-47v-1.5c0,0,1.8,0.6,2.2,0.1L17.8-46.8z"/>
					<path class="st1" d="M9-48.3l0.4-1.6c0,0-2.6,1.8-3.4,1.1l-0.1,1.5C5.9-47.3,8-47,9-48.3z"/>
					<path class="st1" d="M33.9-63.9v-2.6c0,0-2.2,0.8-3.8-0.4l0.6,2.4C30.8-64.5,32.6-62.9,33.9-63.9z"/>
					<path class="st1" d="M33.5-68.1L33.1-71c0,0-3.4-0.1-3.6-0.9l-0.2,3.1C29.2-68.8,32.2-66.7,33.5-68.1z"/>
					<path class="st1" d="M44.2-68.9c0,0-0.1-2.8-0.5-3c1.2,0,5,0.2,5.9-0.5l-0.1,3.5C49.5-68.9,45.6-67.7,44.2-68.9z"/>
					<path class="st1" d="M44.2-50.8c0,0-0.4-2.5,0.1-4.5l3.2,0.5c0,0-0.6,1.9,0.4,2.4C47.1-51.8,44.2-50.8,44.2-50.8z"/>
					<path class="st1" d="M49.6-52.7v-1.9c0,0,3.8-0.4,4.1,0.2c0.2,0.5,0,2,0,2S50.9-53.1,49.6-52.7z"/>
					<polygon class="st1" points="55.8,-52.3 55.6,-53.7 58.3,-53.9 57.5,-52.1 					"/>
					<path class="st1" d="M8-51.3l-0.8-1.9c0,0-1.6,1.2-2.4,0.9c-0.1,1,0.2,2.9,0.2,2.9S7.9-50,8-51.3z"/>
					<polyline class="st1" points="7,-55.4 10.5,-56.7 9.4,-58.4 					"/>
					<polygon class="st1" points="19.6,-67.8 17.8,-66.7 17.1,-68.1 19.5,-69.4 					"/>
					<path class="st1" d="M13.1-65.3c0,0-4.8,0.6-5.3,0L8-67.7c0,0,4.5,1.4,5.2,0.8L13.1-65.3z"/>
					<polygon class="st1" points="52.1,-72.7 52.3,-73.8 55.3,-74.4 54.5,-72.3 					"/>
					<path class="st1" d="M56-72.7l0.8-1.9h2.9L59-71.1C59-71.1,55.9-71.4,56-72.7z"/>
					<path class="st1" d="M60.3-70.5l0.7-3.3c0,0,1.6,2,2.4,2.1s0,2.5,0,2.5S60-68.8,60.3-70.5z"/>
					<path class="st1" d="M64.9-68.8c0,0,0.1-1.5,0.1-2c1.4,0.4,2.8,0.8,3.4,0.5c0.6-0.3,0,1.6,0,1.6S65.6-67.4,64.9-68.8z"/>
					<path class="st1" d="M69.5-68.8l0.5-1.3h1.5l0.5,1.5C72-68.7,70.6-68,69.5-68.8z"/>
					<polygon class="st1" points="73.3,-68.8 72.8,-70 74.6,-70.4 74.5,-68.8 					"/>
					<polygon class="st1" points="75.8,-68.8 75.4,-70.9 77.9,-70.9 79,-68.7 					"/>
					<path class="st1" d="M63.4-64.7c0,0-0.2-1.9,0.8-2.5c1.8,0.4,4.5,0,4.5,0l-0.2,3.9C68.4-63.3,64.6-63.3,63.4-64.7z"/>
					<path class="st1" d="M62.3-59.3c0,0,0.2-2.5,0.9-3.1c2.1,0.8,4.2,0.9,4.2,0.9l-0.6,3.4C66.8-58.1,63-57,62.3-59.3z"/>
					<path class="st1" d="M61.8-56.8l-1.2,3.6c3.1,0.4,5.8-1.6,5.8-1.6v-1.9C66.3-56.7,62.6-55.7,61.8-56.8z"/>
					<polygon class="st1" points="67.6,-54.7 67.9,-56.8 70.3,-57.5 70.4,-55.9 					"/>
					<polygon class="st1" points="71.5,-56.3 71.5,-58 73.4,-58.3 74.4,-57.3 					"/>
					<path class="st1" d="M75.3-57.8L74.4-59c0,0,2.5,0.5,3-0.4l1.1,1C78.5-58.4,77.4-57.4,75.3-57.8z"/>
					<path class="st1" d="M69-58.7v-2.6c0,0,3.5,0.5,3.8-1c0.8,1,0.1,2.9,0.1,2.9L69-58.7z"/>
					<path class="st1" d="M74.3-60.1L74-61.8c0,0,2.4,0.2,3.4-1c0.4,1.2,0.1,2,0.1,2S76.4-59.3,74.3-60.1z"/>
					<path class="st1" d="M69.8-63.1l0.4-3.8c1.4,0.2,3.2,0,3.2,0l0.8,3.1L69.8-63.1z"/>
					<path class="st1" d="M75.3-63.9l-0.3-3c0,0,1.6,0.2,2.8-0.4c0.8,1.2,0.6,2.8,0.6,2.8S76.9-63.3,75.3-63.9z"/>
					<polygon class="st1" points="63.1,-72.8 63.3,-74.3 64.9,-74.1 65.3,-72.4 					"/>
					<path class="st1" d="M65.9-71.8c0,0,3,1,3.8,0.1l-0.5-2.4L67-74.6L65.9-71.8z"/>
					<path class="st1" d="M71.4-71.9l-0.5-2.6c0,0,1.8,1.1,2.5-0.4c1,1,1.2,2.9,1.2,2.9S72.4-70.9,71.4-71.9z"/>
					<path class="st1" d="M75.4-72.5l-0.2-2.1c0,0,1.4,1.1,2.8,0.1c0.6,0.6,0.6,2,0.6,2S76.5-71.7,75.4-72.5z"/>
					<path class="st1" d="M32.1-72.8c0,0-1.5-2.4-0.9-3.4c-1.1,0.5-3.4,0.9-4,0.1l1.6,3C28.9-73,31.5-72.1,32.1-72.8z"/>
					<path class="st1" d="M26.8-73.1c0,0-2.2,0-2.4,0.8l-0.9-1.4c0,0,1.2-1,1.9-0.8C26.1-74.3,26.8-73.1,26.8-73.1z"/>
					<path class="st1" d="M22.6-71.8c0,0-1.1-1.5-0.8-2.4c-1.5,0.2-3.8-0.2-4-0.6C18.3-72.9,20-71,20-71S22.1-71,22.6-71.8z"/>
					<path class="st1" d="M18.4-70.3c0,0-2.9,2.1-3.4,1.6c-0.1-1.1-1.4-5.2-0.1-6.6c0.4,0.4,2,0.6,2,0.6S17.6-70.7,18.4-70.3z"/>
					<path class="st1" d="M12.9-68.5l-4-0.3c0,0-1.4-3.6,0.5-4.7c0.8,0.5,4.2-1,4.2-1C12.6-71.4,11.5-69.5,12.9-68.5z"/>
					<path class="st1" d="M13.2-75.9c0,0-2.2,1.4-2.2,0.2c0-0.8,0.2-1.9,0.2-1.9l2.4-0.6C13.6-78.1,13.5-76.9,13.2-75.9z"/>
					<path class="st1" d="M9.9-75.4c0,0-2,1.4-2.5,0.6l0.4-2.6l1.4-0.1L9.9-75.4z"/>
					<path class="st1" d="M13.2-3.9c0,0-2.2,1.4-2.2,0.2c0-0.8,0.2-1.9,0.2-1.9l2.4-0.6C13.6-6.1,13.5-4.9,13.2-3.9z"/>
					<path class="st1" d="M9.9-3.4c0,0-2,1.4-2.5,0.6l0.4-2.6l1.4-0.1L9.9-3.4z"/>
				</g>
				<path class="st4" d="M35.7-22.6c0,0-2.7,3.1-1.1,5.7c3.2-1.8,4,0.9,6.1,1.5c0.1-1.1,0.8-3.3,0.3-4.3S37-23.3,35.7-22.6z"/>
				<path class="st4" d="M61.2-34.6c0.3,0.8,0.7,1.4,1,1.7c0.3,0.7-2.2,0.3-2.2,0.3s-0.2-0.7-0.5-1.5L61.2-34.6z"/>
				<path class="st4" d="M62.1-35.5c0.3,0.6,0.7,1.1,1.1,1.3c1.3,0.8,2.2-0.2,2.2-0.2L64-36.1L62.1-35.5z"/>
				<path class="st4" d="M57.2-29.4l2.3,0.2c-0.3-0.5-1-2.3-1-2.3s-1.5,0.6-2-0.4S57.2-29.4,57.2-29.4z"/>
				<path class="st4" d="M61-29.4l-0.8-1.8c0,0,2-0.2,2.3-0.8c1.5,1.5,0.8,3,0.8,3S62-28.9,61-29.4z"/>
				<path class="st4" d="M65.2-29.4c0,0,2.2,0.5,3-0.3c-0.7-1.2-1.7-4-1.7-4c-1.2,0.7-1.8,1.5-2.7,1.2
					C64.7-32.2,65.4-30.4,65.2-29.4z"/>
				<path class="st4" d="M11.7-39.2c0,0,0.8-1.8,0.3-1.7s-2,0-2,0l-0.2,1.7H11.7z"/>
				<polygon class="st4" points="8.5,-39.4 7.9,-40.1 7.4,-41.7 8.7,-41.2 				"/>
				<path class="st4" d="M8.9-31.7L9-32.9c0,0-1.2-0.7-2,0.2l-0.5,0.8C6.5-31.9,7.7-32.2,8.9-31.7z"/>
				<path class="st4" d="M72.4-27.1c0,0-1.8,1-3,0.3l0.3-1.5c0,0,2-0.3,2.5-1.2C72.9-28.4,72.4-27.1,72.4-27.1z"/>
				<path class="st4" d="M64-26.6c0,0-2.7,2.2-3.7,1.7c0.2-0.7,0.7-2,0.7-2.7c0.8,0,2.5-0.5,2.5-0.5L64-26.6z"/>
				<path class="st4" d="M48.5-21.2c0,0-1,1.2-2,0.7s-0.6-2.4-0.6-2.4l1.5-0.7C47.4-23.6,47.9-21.2,48.5-21.2z"/>
				<path class="st4" d="M32.5-17.7c0,0-1.4-3.4,0.1-5.4c-1.4-0.1-4-2.4-5.6,0.8c-0.4,1,0.1,2.6,0.1,2.6S30.3-19.7,32.5-17.7z"/>
				<path class="st4" d="M14.3-16.2c0,0-2.6,2.2-3.6,1c-0.8-0.9-0.4-2.6-0.4-2.6s1.5,0.2,2.1-0.8C13-18.1,12.7-16.3,14.3-16.2z"/>
				<path class="st4" d="M12-19.4l-0.1-1.4c0,0-2.5,0.4-3.3-0.5c0,1.1,1.2,2.2,1.2,2.2S10.6-18.4,12-19.4z"/>
				<path class="st4" d="M9.3-14.9c0,0-2.1,0.8-2.5,0.2c-0.5-1-0.1-3-0.1-3c1,0.1,2.2,0,2.2,0S7.2-15.9,9.3-14.9z"/>
				<path class="st4" d="M7.7-18.9c0,0-1-1.6-0.5-2.5c-1.1-0.4-2-1-2.9-0.2c0,1.1,0.1,2.6,1.1,2.6L7.7-18.9z"/>
				<path class="st4" d="M6-17.8H4.1c-0.6,1-0.6,2.9,0,3.4c1.1,0.1,1.1,0.1,1.1,0.1S4.8-17.1,6-17.8z"/>
				<path class="st4" d="M79.6-18.9c0,0-1-1.6-0.5-2.5c-1.1-0.4-2-1-2.9-0.2c0,1.1,0.1,2.6,1.1,2.6L79.6-18.9z"/>
				<path class="st4" d="M77.9-17.8H76c-0.6,1-0.6,2.9,0,3.4c1.1,0.1,1.1,0.1,1.1,0.1S76.7-17.1,77.9-17.8z"/>
				<path class="st4" d="M60.7-12.3c0,0,1.8,1.6,2.8,0.9c0.5-1.2,0.4-3.6,0.4-3.6c-1,0.2-2.8,0-2.8,0S61.8-12.8,60.7-12.3z"/>
				<path class="st4" d="M73.8-14.4l1-0.4c0,0-0.6-2.9,0.1-3.2L73-17.2C73.1-17.3,74.6-14.8,73.8-14.4z"/>
				<path class="st4" d="M69-17.7l2.6-0.6c0,0-0.5-2.4-0.9-2.8c0,0-1.9,1-2.6,0.5C68.1-20.6,69.6-18.2,69-17.7z"/>
				<path class="st4" d="M9.3-59c0,0,0.8-3.2,0.3-3.5c-1,0.2-1.9-0.1-1.9-0.1c-0.5,1.3,2,0.9-0.5,3.5C8.5-58.7,8.8-58.4,9.3-59z"/>
				<path class="st4" d="M73.1-18.6c0,0,1.9-1,2.6-0.8c0,0-1.4-1.4-0.9-2.2l-2.5,1C72.3-20.6,73.3-18.9,73.1-18.6z"/>
				<polygon class="st4" points="12.6,-13.3 12.2,-14.2 13.5,-14.7 14.5,-13.6 				"/>
				<polygon class="st4" points="11.1,-10.8 9.2,-10.7 9.5,-12.1 11.6,-12.7 				"/>
				<path class="st4" d="M23.1-9.8c0,0-1.6,0.9-2.6-0.1c-0.1,0.8,0,3.2,0,3.2s1.9,1.2,2.1,0.5L23.1-9.8z"/>
				<path class="st4" d="M19.1-7.3l-2.2-0.8l0.1-2.1c0,0,2-0.4,2.2,0.4C19.3-9.4,19.6-7.6,19.1-7.3z"/>
				<path class="st4" d="M15-8.4l-2.2-0.5c0,0-1-1.2,0-1.5l2.4,0.2C15.2-10.2,15.8-8.2,15-8.4z"/>
				<path class="st4" d="M14.8-6.5l-0.1-1.1l-2-0.4c0,0-1.5,1.9-0.9,1.9S13.5-6.3,14.8-6.5z"/>
				<path class="st4" d="M10.8-6.5l-0.1-1.1L8.7-7L8.4-6.2C8.4-6.1,9.8-5,10.8-6.5z"/>
				<path class="st4" d="M42.7-6.7c0,0-0.6-1.5-0.1-2c1.8,0.6,4.6,0,5.8-0.6l0.2,1.1C48.6-8.2,44.2-5.6,42.7-6.7z"/>
				<path class="st4" d="M51-9.1v-0.8c0,0,4.2-0.5,4.4-1.6c0.8,1.4,0.5,3,0.5,3S51.8-6.7,51-9.1z"/>
				<polygon class="st4" points="74.3,-11.2 75.1,-11.6 75.1,-13.4 73.7,-12.9 				"/>
				<path class="st4" d="M58.5-78.7l0.6,3.4c0,0,3.1,0.2,3.1-1.1c0-0.6-0.9-3.1-0.9-3.1S59.6-77.8,58.5-78.7z"/>
				<path class="st4" d="M62.8-7.7l0.6,2.5c0,0,0.8,0.4,2.1-0.6L65-8L62.8-7.7z"/>
				<path class="st4" d="M66.7-6.4l3.5-0.9l-0.5-1.1L67-8.2C67-8.2,66.2-6.2,66.7-6.4z"/>
				<path class="st4" d="M72-7.3l3.1-0.6c0,0,0.4-1.4,0.5-2c-1-0.2-4.2,1.4-4.2,1.4L72-7.3z"/>
				<path class="st4" d="M26-77.1l-0.7,2.2c0,0-2.1,0.2-2.2-0.6C23-76.3,23.3-77,23.3-77L26-77.1L26-77.1z"/>
				<path class="st4" d="M69.3-52.4L69.1-53l2-0.8c0,0,0.9,0.8,0.2,1.1S69.3-52.4,69.3-52.4z"/>
				<path class="st4" d="M72.8-51.9c0,0-0.1-1.6-0.9-2.2c0,0,0.4-1.2,1.8-1s1.4-0.4,1.4-0.4s0.9,2.9,0.2,2.9S72.8-51.9,72.8-51.9z"
					/>
				<path class="st4" d="M35-44.8c0,0,0.4-2.6-0.1-3.1c-1,0.5-4.5,0.5-4.6,0.1l0.2,3C30.5-44.8,33.6-45.8,35-44.8z"/>
				<polygon class="st4" points="28.5,-45.7 28.2,-47.7 25.1,-47.2 24.7,-46.1 				"/>
				<polygon class="st4" points="53,-72.3 53.1,-73.4 56.1,-74.1 55.3,-71.9 				"/>
				<path class="st4" d="M56.8-72.3l0.8-1.9h2.9l-0.6,3.4C59.8-70.8,56.7-71.1,56.8-72.3z"/>
				<path class="st4" d="M61.1-70.2l0.8-3.2c0,0,1.6,2,2.4,2.1c0.8,0.1,0,2.5,0,2.5S60.8-68.4,61.1-70.2z"/>
				<path class="st4" d="M70.3-68.4l0.5-1.4h1.5l0.5,1.5C72.8-68.3,71.5-67.7,70.3-68.4z"/>
				<polygon class="st4" points="74.1,-68.4 73.6,-69.7 75.5,-70.1 75.3,-68.4 				"/>
				<polygon class="st4" points="76.6,-68.4 76.2,-70.6 78.7,-70.6 79.8,-68.3 				"/>
				<path class="st4" d="M64.2-64.3c0,0-0.2-1.9,0.8-2.5c1.8,0.4,4.5,0,4.5,0l-0.3,3.9C69.2-62.9,65.5-62.9,64.2-64.3z"/>
				<path class="st4" d="M76.1-57.4l-0.9-1.2c0,0,2.5,0.5,3-0.4l1.1,1C79.3-58.1,78.2-57.1,76.1-57.4z"/>
				<path class="st4" d="M70.6-62.8l0.4-3.8c1.4,0.2,3.2,0,3.2,0l0.8,3.1L70.6-62.8z"/>
				<polygon class="st4" points="64,-72.4 64.1,-73.9 65.7,-73.8 66.1,-72.1 				"/>
				<path class="st4" d="M66.7-71.4c0,0,3,1,3.8,0.1L70-73.7l-2.2-0.5L66.7-71.4z"/>
				<path class="st4" d="M72.2-71.6l-0.5-2.6c0,0,1.8,1.1,2.5-0.4c1,1,1.2,2.9,1.2,2.9S73.2-70.6,72.2-71.6z"/>
				<path class="st4" d="M76.2-72.2L76-74.3c0,0,1.4,1.1,2.8,0.1c0.6,0.6,0.6,2,0.6,2S77.3-71.3,76.2-72.2z"/>
				<polygon class="st4" points="4.6,-68.4 4.2,-70.6 6.7,-70.6 7.8,-68.3 				"/>
				<path class="st5" d="M3.1-59.8l-0.2-1.6c0,0,2.4,0.2,3.4-1c0.4,1.2,0.1,2,0.1,2S5.2-58.9,3.1-59.8z"/>
				<path class="st4" d="M4.2-72.2L4-74.3c0,0,1.4,1.1,2.8,0.1c0.6,0.6,0.6,2,0.6,2S5.3-71.3,4.2-72.2z"/>
				<path class="st4" d="M33-72.4c0,0-1.5-2.4-0.9-3.4c-1.1,0.5-3.4,0.9-4,0.1l1.6,3C29.7-72.7,32.3-71.8,33-72.4z"/>
				<path class="st4" d="M27.6-72.8c0,0-2.2,0-2.4,0.8l-0.9-1.4c0,0,1.2-1,1.9-0.8C26.9-74,27.6-72.8,27.6-72.8z"/>
				<path class="st4" d="M23.5-71.4c0,0-1.1-1.5-0.8-2.4c-1.5,0.2-3.8-0.2-4-0.6c0.5,1.8,2.3,3.7,2.3,3.7S23-70.7,23.5-71.4z"/>
				<g>
					<path class="st3" d="M52.7-27.9l0.2-3.3l2-0.3c0,0,0.5,1.7,1,2.3S52.7-27.9,52.7-27.9z"/>
					<path class="st3" d="M12.9-29.7c0,0-2.5,0.5-2.7-0.5s0.3-3,0.3-3s1.5,1,2.5,0.3S14.2-31.4,12.9-29.7z"/>
					<path class="st5" d="M76.5-28c0,0-1.7,0.8-2.5-0.2c-0.3-1,0.7-2.4,0.7-2.4s2.3,0.1,2.6-0.7C76.5-30.3,76.5-28,76.5-28z"/>
					<path class="st3" d="M59.7-27.4c0,0,0,1.8-0.8,2.7c-0.7,0.3-2.5,0.3-2.5,0.3c0.3-1.5,0-3.3,0.8-3.3S59.7-27.4,59.7-27.4z"/>
					<path class="st3" d="M55.2-27.1c0,0-1,2.2-0.2,3c0,0.8-0.3,1.3-2.2,1.5c-0.5-2.2,0.5-4.2,0.5-4.2L55.2-27.1z"/>
					<path class="st3" d="M51.5-26.1c0,0-1.3,2.7,0,3.5c-1,1.5-2,0.3-2,0.3l-1-2.2C48.5-24.4,48.4-25.6,51.5-26.1z"/>
					<path class="st3" d="M48.9-16.9c0,0-2.2-2.3-1.3-2.7c2.2-0.2,2.5-0.8,3.5-1.2s0.7,3.2,2,2.8C52.5-16.9,49.7-15.9,48.9-16.9z"/>
					<path class="st5" d="M78.2-22.9c0,0-2.5,0.8-3.2,0c0.7-1.5-0.2-3.5-0.2-3.5c2.2,0.2,3,0.2,3,0.2S80.2-25.9,78.2-22.9z"/>
					<path class="st3" d="M25.5-19.7c0,0-0.8-2.6-0.2-3.4c-1.8,1.2-2.6,1.5-3.9,1.1c-0.2,1.6-1,2.6,0.2,3.6
						C23-18.3,24.6-18.4,25.5-19.7z"/>
					<path class="st3" d="M50.4-55.9c0,0-0.9-3.5,0.5-4.4c1.7,0.1,3.2-0.3,4.4,0.9c-0.4,1.4,0.3,4.8-0.7,4.5
						C52.7-55.4,51.7-54.3,50.4-55.9z"/>
					<path class="st3" d="M56.1-54.5c0,0,1.5-2.9,0.7-4.6c1.9,0.5,3.7,1.2,3.9,2.6c-0.7,1.9-1.3,2.1-1.3,2.1S57.7-55.3,56.1-54.5z"
						/>
					<path class="st3" d="M59.1-66.2c0,0,0.2-2.5,1.2-2.4c1,0.1,2.8,1.1,2.8,1.1s-1.4,1.2-1,2.3C62.5-64,60.3-64.4,59.1-66.2z"/>
					<path class="st3" d="M24-70.3c0,0,0.3,1.9,0.5,2.3c0,0-1.8,0.1-2.1,0.7c-0.6-0.6-0.8-1.3-0.6-2.3L24-70.3z"/>
					<path class="st3" d="M29.9-64.7v-2c0,0-1.6,0.5-2.7,0.1c-1.1-0.4-0.5,0.6-0.6,1.9C26.5-63.4,29.4-63.8,29.9-64.7z"/>
					<path class="st3" d="M25.8-64l-1.5-3l-2,0.5c0,0,0.2,1.7,0,2.5C22.2-63.2,25.8-64,25.8-64z"/>
					<path class="st3" d="M12.9-56.9l1.5-1l-0.5-1.2c0,0-1.5,1-2.4,0.8L12.9-56.9z"/>
					<path class="st3" d="M16-58.3c0,0,3.3,0.9,4,0.1c-0.4-0.5-1.4-1.6-1.7-2.2c-0.8,0.3-2.5,0.5-2.5,0.5L16-58.3z"/>
					<path class="st3" d="M27.6-62.8c0,0,2.3,1.9,1.4,3.2c1.5,1,2-0.5,2-0.5v-2.4C31-62.5,30.7-63.6,27.6-62.8z"/>
					<path class="st3" d="M32.3-59.6c0,0,1.4,0.7,2.1-0.2c0.7-0.9-0.3-2.4-0.3-2.4h-1.6C32.4-62.2,32.9-59.9,32.3-59.6z"/>
					<path class="st3" d="M28.2-57.4c0,0,0.9,2.5,0.1,3.1c-0.8,0.6-2.6-0.1-2.6-0.1l-0.2-3C25.4-57.5,26.9-56.5,28.2-57.4z"/>
					<path class="st3" d="M24.3-54.6c0,0-1.3-2.5-0.5-3.2c-1.5,1.2-2.4,0.8-2.4,0.8v3.3C21.4-53.7,23-53,24.3-54.6z"/>
					<path class="st3" d="M29.2-15.6l3.6,0.6l-0.6-1.8c0,0-2.6-0.9-3.2-1.1S29.2-15.6,29.2-15.6z"/>
					<path class="st3" d="M28-10.6c0,0-1.8,0.6-3.5-0.8l-0.2-2.4c0,0,2-1.4,3.4-0.9C27.8-13.8,28-10.6,28-10.6z"/>
					<path class="st3" d="M27.5-16.1c0,0,0-1.5-0.8-2.1c-1.4,0.1-3.4,1.1-4,0.9c0.5,0.9,1.5,1.6,1.5,1.6S26-15.8,27.5-16.1z"/>
					<path class="st3" d="M23.1-10.9l-2.9-0.5c0,0-0.8-1.4-0.2-2l2.5-0.2C22.5-13.7,23.8-11.9,23.1-10.9z"/>
					<path class="st3" d="M22-15.2c0.4-0.4-1.1-1.6-1.1-1.6s-2.8,0.9-3.4,0.8c0.4,1,2.2,1.8,2.2,1.8S21.5-14.7,22-15.2z"/>
					<path class="st3" d="M18.6-10.8l-2-0.1l-0.2-1.6l1.9-0.6C18.2-13.2,19.2-11.2,18.6-10.8z"/>
					<path class="st3" d="M15.7-13.7l-1.2-1.2c0,0,0.8-0.6,1.5-0.8c0.7-0.2,1.4,1.1,1.4,1.1L15.7-13.7z"/>
					<path class="st3" d="M15.2-10.9c-0.4,0.1-2.6-0.5-2.6-0.5l0.4-0.9l2.1,0.1L15.2-10.9z"/>
					<polygon class="st3" points="9.2,-12.8 8.7,-13.9 10.3,-14.3 10.7,-13.4 					"/>
					<path class="st3" d="M58.5-6.7l0.6,3.4c0,0,3.1,0.2,3.1-1.1c0-0.6-0.9-3.1-0.9-3.1S59.6-5.8,58.5-6.7z"/>
					<path class="st3" d="M52.2-47.4c0,0,2.1,0.2,2.5-0.4l0.2-3.2l-2.5,0.2C52.5-50.8,53.6-49.3,52.2-47.4z"/>
					<path class="st3" d="M62.3-45.6c0,0,1.1-0.9,2-0.6c0.1-1.2-0.4-1.9-0.4-1.9s-1.9,0.4-2.1,0.9C61.8-47.2,61.7-45.6,62.3-45.6z"
						/>
					<path class="st3" d="M65.7-46.6c0,0,2,0.6,2.4,0c0.2-1,0-2.2,0-2.2l-2.5,0.5C65.6-48.3,66.3-46.9,65.7-46.6z"/>
					<path class="st3" d="M69.6-46.7c0,0,1.6,0.2,2.1-0.1l-0.5-1.9l-2.1-0.2L69.6-46.7z"/>
					<polygon class="st3" points="69.5,-50.1 71.2,-49.8 71.5,-51.2 69.5,-51.4 					"/>
					<path class="st3" d="M73.1-47.2c0,0,0.8-2.9-0.2-3.9c2-0.2,2.4-1.1,3.8,0c0.6,0.6,1,4.4-0.6,4S73.1-47.2,73.1-47.2z"/>
					<path class="st3" d="M1.1-47.2c0,0,0.8-2.9-0.2-3.9c2-0.2,2.4-1.1,3.7,0c0.6,0.6,1,4.4-0.6,4S1.1-47.2,1.1-47.2z"/>
					<path class="st3" d="M4.2-52.8V-56c0,0,0.5-0.6,1.5-0.1s0.9,3,0.9,3S5.3-52.6,4.2-52.8z"/>
					<path class="st3" d="M34.7-63.6v-2.6c0,0-2.2,0.8-3.8-0.4l0.6,2.4C31.6-64.2,33.5-62.6,34.7-63.6z"/>
					<path class="st3" d="M50.5-52.3v-1.9c0,0,3.8-0.4,4.1,0.2c0.2,0.5,0,2,0,2S51.7-52.8,50.5-52.3z"/>
					<polygon class="st3" points="56.6,-51.9 56.5,-53.3 59.1,-53.6 58.3,-51.8 					"/>
					<polygon class="st3" points="20.5,-67.4 18.6,-66.3 18,-67.8 20.3,-69.1 					"/>
					<path class="st3" d="M14-64.9c0,0-4.8,0.6-5.3,0l0.2-2.4c0,0,4.5,1.4,5.2,0.8L14-64.9z"/>
					<path class="st3" d="M65.7-68.4c0,0,0.1-1.5,0.1-2c1.4,0.4,2.8,0.7,3.4,0.5s0,1.6,0,1.6S66.5-67.1,65.7-68.4z"/>
					<path class="st3" d="M19.2-69.9c0,0-2.9,2.1-3.4,1.6c-0.1-1.1-1.4-5.2-0.1-6.6c0.4,0.4,2,0.6,2,0.6S18.5-70.3,19.2-69.9z"/>
					<path class="st3" d="M13.7-68.2l-4-0.3c0,0-1.4-3.6,0.5-4.8c0.8,0.5,4.2-1,4.2-1C13.5-71.1,12.3-69.2,13.7-68.2z"/>
				</g>
				<g>
					<path class="st2" d="M14.6-42.1c0,0,0-2.9,0.9-3.9c0.7,0.6,2.1,1,3.2,0.6c0.4,0.8-0.2,3.8-1.2,3.8S15.6-42.9,14.6-42.1z"/>
					<path class="st2" d="M19.4-41.5c0,0,1.5-3.2,0.9-3.9c1.1,0.1,1.6-0.9,3,0.6c-0.1,1.1-1.2,4-1.2,4S21.3-42.1,19.4-41.5z"/>
					<path class="st2" d="M23.4-41.6c0,0,1.2-2.5,1-3.2c1.2-0.4,2.9,0,4,0.5c-0.2,1.5,0.4,3.9-0.9,4.4
						C26.7-40.7,24.5-39.4,23.4-41.6z"/>
					<path class="st2" d="M69.9-29.9c0,0-2-2.6-1.7-3.1c1-0.2,2.1-1.5,2.1-1.5c1,1-1.1,2.3,2.2,3.7C71.5-29.9,70.5-29.6,69.9-29.9z"
						/>
					<path class="st2" d="M73.9-31.4c0,0-2.3-2.3-2.2-3.2c0.2-0.8,0.5-1.5,0.5-1.5l1.7-0.3l1.8,4C75.7-32.4,74.5-30.9,73.9-31.4z"/>
					<path class="st2" d="M15.2-34.7c0,0-1.7,0.8-2.3,0c-0.7-0.8,1.2-2.8,1.2-2.8l2.2,1C16.2-36.6,16.5-35.7,15.2-34.7z"/>
					<path class="st2" d="M11-35.1c0,0-2.7,0.8-2.8-0.5c-0.2-1.3-0.7-3.1-0.7-3.1l4,0.5C11.5-38.2,13-36.6,11-35.1z"/>
					<path class="st2" d="M67.4-26.6l-1.9-0.3v-1.3c0,0,1.8,0.3,2.5-0.2L67.4-26.6z"/>
					<path class="st2" d="M60.3-16.3l-1-2c0,0,1.9-0.1,2.5-0.8c1.4,1,1.8,2.8,1.8,2.8S62.6-15.8,60.3-16.3z"/>
					<path class="st2" d="M64.8-17.1c0.1-0.8-0.2-1.8-1.1-2.5c1.8-0.5,2.8-1.5,2.8-1.5s1.5,1.6,0.8,3S65.5-16.4,64.8-17.1z"/>
					<path class="st2" d="M65.1-15.2c0,0,1.9-0.1,2.2-0.9c0.9,1.2,1.8,3.7,1.1,4.1c-1.5,1-3.1,0.1-3.1,0.1S66.1-13.8,65.1-15.2z"/>
					<path class="st2" d="M70.2-12.4c0,0,0.1-2.2-0.5-3.1c1.5-0.5,2.4-1.1,2.4-1.1s1.4,1.2,0.6,2.9L70.2-12.4z"/>
					<path class="st2" d="M23.5-50.4l0.1-2.2c0,0-1.8,0.6-2.6,0.3c-0.9,1.5-0.5,3.2-0.5,3.2S21.6-49,23.5-50.4z"/>
					<path class="st2" d="M14.6-47.4l-3.1-0.5c0,0,0.4-2.1,0.6-2.6c0,0,2.1,0.2,2.6-0.6C14.7-51.2,13.8-47.7,14.6-47.4z"/>
					<path class="st2" d="M8-11.3l-1.6-0.2l0.1-2.1h1.1C7.6-13.7,8.6-11.8,8-11.3z"/>
					<path class="st2" d="M5.1-11.6H3.8c0,0-0.5-1.2,0.1-1.9h1.5C5.5-13.4,4.5-12.2,5.1-11.6z"/>
					<path class="st2" d="M77.1-11.6h-1.2c0,0-0.5-1.2,0.1-1.9h1.5C77.5-13.4,76.5-12.2,77.1-11.6z"/>
					<path class="st2" d="M32.7-5.3c0,0-1.1-3.2-0.4-3.5c-1.6-0.2-3.9,0.4-4.8-0.5c0.4,1.1-0.6,3.9-0.6,3.9S31.3-3.9,32.7-5.3z"/>
					<path class="st2" d="M26.7-9.2l-0.9,3.3L23.7-6l0.4-3.2C24.1-9.3,25-9.9,26.7-9.2z"/>
					<path class="st2" d="M11.2-8.9l-2.4,1c0,0-1-1.4-0.2-1.9s2.4,0,2.4,0L11.2-8.9z"/>
					<path class="st2" d="M7.3-7.7c0,0-0.8-1.5,0.2-2.5c0,0-2-1.8-3.1,0L4-7.8C4.1-7.8,5.7-6.7,7.3-7.7z"/>
					<path class="st2" d="M79.3-7.7c0,0-0.8-1.5,0.2-2.5c0,0-2-1.8-3.1,0L76-7.8C76.1-7.8,77.7-6.7,79.3-7.7z"/>
					<path class="st4" d="M26-5.1l-0.7,2.2c0,0-2.1,0.2-2.2-0.6S23.3-5,23.3-5L26-5.1L26-5.1z"/>
					<path class="st2" d="M22.2-5.2l-0.4,2.1c0,0-2.1,0.1-2.6-0.6s1.2-2,1.2-2S21.6-4.8,22.2-5.2z"/>
					<path class="st2" d="M18.2-4.2c0,0-0.2-1.8,0.5-2.1c-0.9-0.6-2-0.9-2-0.9l-1.5,2.3C15.2-4.9,17.2-3.1,18.2-4.2z"/>
					<path class="st2" d="M7.3-5.1c0-0.4,0-1.4,0-1.4s-2.4,0.8-3-0.1L3.7-3.8C3.7-3.8,7.7-1.8,7.3-5.1z"/>
					<path class="st2" d="M79.3-5.1c0-0.4,0-1.4,0-1.4s-2.4,0.8-3-0.1l-0.6,2.8C75.7-3.8,79.7-1.8,79.3-5.1z"/>
					<path class="st2" d="M65.3-9.3l0.1-1.4c0,0,1.9,0.4,2.6-0.2l0.5,1.2C68.6-9.7,65.7-8.4,65.3-9.3z"/>
					<path class="st2" d="M70.2-10.2v-1.4c0,0,2.1-0.2,2.4-0.9l0.6,2C73.2-10.4,71-8.6,70.2-10.2z"/>
					<path class="st2" d="M22.2-77.2l-0.4,2.1c0,0-2.1,0.1-2.6-0.6c-0.5-0.7,1.2-2,1.2-2S21.6-76.8,22.2-77.2z"/>
					<path class="st2" d="M18.2-76.2c0,0-0.2-1.8,0.5-2.1c-0.9-0.6-2-0.9-2-0.9l-1.5,2.3C15.2-76.9,17.2-75.1,18.2-76.2z"/>
					<path class="st2" d="M79.3-77.1c0-0.4,0-1.4,0-1.4s-2.4,0.8-3-0.1l-0.6,2.8C75.7-75.8,79.7-73.8,79.3-77.1z"/>
					<path class="st2" d="M51.7-43.6c0,0,1.6,0.6,2.1-0.1c-0.4-0.9,0.5-2.9,0.5-2.9s-1.3,1.2-2.1,0.7S52.7-44.1,51.7-43.6z"/>
					<polygon class="st2" points="23.2,-46.7 23.5,-49.1 20.3,-47.9 20.3,-46.4 					"/>
					<path class="st2" d="M18.6-46.4l-2.4-0.2v-1.5c0,0,1.8,0.6,2.2,0.1L18.6-46.4z"/>
					<path class="st2" d="M9.8-47.9l0.4-1.6c0,0-2.6,1.8-3.4,1.1l-0.1,1.5C6.7-46.9,8.8-46.7,9.8-47.9z"/>
					<path class="st2" d="M45.1-50.4c0,0-0.4-2.5,0.1-4.5l3.2,0.5c0,0-0.6,1.9,0.4,2.4C48-51.4,45.1-50.4,45.1-50.4z"/>
					<path class="st2" d="M8.8-50.9L8-52.8c0,0-1.6,1.2-2.4,0.9c0,1,0.4,2.8,0.4,2.8S8.7-49.7,8.8-50.9z"/>
					<path class="st2" d="M7.3-77.1c0-0.4,0-1.4,0-1.4s-2.3,0.8-3-0.1l-0.6,2.8C3.7-75.8,7.7-73.8,7.3-77.1z"/>
					<path class="st2" d="M14.1-75.6c0,0-2.2,1.4-2.2,0.2c0-0.8,0.2-1.9,0.2-1.9l2.4-0.6C14.5-77.8,14.3-76.6,14.1-75.6z"/>
					<path class="st2" d="M10.7-75.1c0,0-2,1.4-2.5,0.6l0.4-2.6l1.4-0.1L10.7-75.1z"/>
					<path class="st2" d="M14.1-3.6c0,0-2.2,1.4-2.2,0.2c0-0.8,0.2-1.9,0.2-1.9l2.4-0.6C14.5-5.8,14.3-4.6,14.1-3.6z"/>
					<path class="st2" d="M10.7-3.1c0,0-2,1.4-2.5,0.6l0.4-2.6L10-5.2L10.7-3.1z"/>
				</g>
				<path class="st4" d="M4.1-57.4l-0.9-1.2c0,0,2.5,0.5,3-0.4l1.1,1C7.3-58.1,6.2-57.1,4.1-57.4z"/>
				<path class="st5" d="M36.4-43.5c0,0,4.1,1,4.8-0.5c0.6-1.9,0.1-3.1-0.2-4.4c-1-0.4-3.2-0.6-4.5-0.4S38.4-44.7,36.4-43.5z"/>
				<path class="st5" d="M40.6-36.3c0,0-3.2,0.2-5.7-1.3c-0.2-0.9,1.1-4.1,1.8-4.4c1,0.6,3.1,0.6,4.6,0.1
					C40.9-41.1,40-37.4,40.6-36.3z"/>
				<path class="st5" d="M42-35.8c0,0-0.6-4.2,0.9-5.5c1-0.4,1.6-0.6,2.4,0.1c-0.5,1-2,4.1-0.9,5.5C43.9-35.6,42.9-35.3,42-35.8z"/>
				<path class="st5" d="M45.7-35.7c0,0,2-0.8,3.2-0.2c0.4-1.2-1.2-4.6-0.5-5.5c-0.5-0.2-1.2,0-1.8,0.1S45-36.9,45.7-35.7z"/>
				<path class="st5" d="M50.5-36c0,0,1.8-0.2,2.3-0.2c0-1.6-1.9-4.2-1.1-4.9c-0.9-0.2-2.4,0.2-2.4,0.2S51.5-37,50.5-36z"/>
				<path class="st5" d="M53.6-36.9c0,0,1.6-1.1,2.5-1c-0.4-1.1-1.4-4-2-3.2c-0.5-0.1-1.2,0.2-1.2,0.2S54.1-38.9,53.6-36.9z"/>
				<path class="st4" d="M56.7-38.8l-1.1-3.4c0,0,1,0,1.5-0.4s0.5,3.1,1.2,3.2C58-38.9,57.3-38.1,56.7-38.8z"/>
				<path class="st4" d="M59.5-39.7c0,0-0.4-2-0.9-2.8c0.6-0.5,1.2-1.1,2.1-0.9s-0.1,1.6,0.8,2.4C61.1-40.2,60.3-39.6,59.5-39.7z"/>
				<path class="st4" d="M62.8-40.9c0,0-0.6-2.6-0.4-3.2s1-0.8,2-0.9c1-0.1-0.1,3.6,1,3.9C64.6-40.8,63.7-40.4,62.8-40.9z"/>
				<path class="st5" d="M66.2-42.1c0,0-1.1-1.9-0.6-2.9s0.8,0,2.1-0.5c0.6,1.1-0.5,1.5,0.5,2.5S67.2-41.7,66.2-42.1z"/>
				<path class="st5" d="M69.6-42.6c0,0-0.6-2.4-0.2-2.8s1.5,0,1.5,0l0.4,2.6C71.2-42.7,70.6-42.1,69.6-42.6z"/>
				<path class="st4" d="M72.3-42.6l1.1-1c0,0,0.1-1-0.5-1.8s-1.2-0.4-1.2-0.4S71.6-43.2,72.3-42.6z"/>
				<path class="st4" d="M74.3-44.2V-46l1.2,0.2l-0.2,2.6C75.3-43.1,74.3-42.8,74.3-44.2z"/>
				<path class="st4" d="M76.1-43.3l0.2-2.2l0.9-0.2c0,0,0.8,2.1,1.1,2.9S76.3-42.1,76.1-43.3z"/>
				<path class="st5" d="M37.3-49.4c0,0-2-2.6-1.2-4.4c2,0.2,3.4-1.4,5.1-0.9s1.8,1.4,1.8,1.4v4C43-49.3,39.7-50.1,37.3-49.4z"/>
				<path class="st5" d="M42.9-56.5c-0.1,0.4-3.7,0.1-6.5,1.1c-0.8-1,0-5.1,0.7-5.5s1.8-1.8,4-0.8C44-60.4,43.9-60.7,42.9-56.5z"/>
				<path class="st5" d="M36.1-66.8c0,0-1.5-2.8,0-3.7c1.2-0.6,5.1-1.9,6.5-1.2c1.4,0.7-0.1,2,0.2,3.5
					C41.5-67.7,38.2-68.6,36.1-66.8z"/>
				<path class="st5" d="M41.4-73.1c0,0-5.9-0.4-7,1.1c-0.2-1.8-1.5-3.9-0.4-5c1.1-0.5,4.7,1.2,6.2-0.9
					C40.7-78.3,42.8-76.6,41.4-73.1z"/>
				<path class="st5" d="M41.4-1.1c0,0-5.9-0.4-7,1.1c-0.2-1.8-1.5-3.9-0.4-5c1.1-0.5,4.7,1.2,6.2-0.9C40.7-6.3,42.8-4.6,41.4-1.1z"
					/>
				<path class="st5" d="M39.6-34.7c0,0,2.5,4.9,0.2,6.4c-1.2-1.2-3.6-1.8-6.4-1.9c-0.6-2.2,0.2-5.6,1.2-6.2
					C36.6-35.8,38.3-34,39.6-34.7z"/>
				<path class="st5" d="M40.4-26.6c0.9,1.1,0.9,2.9,0.4,4.6c-1.5-1.4-3.1-3-5.9-2.8c-0.6-2.6-0.6-3.5-0.3-3.6S39.1-28.4,40.4-26.6z
					"/>
				<path class="st5" d="M34.3-14.4c0,0,0.6,1.2-0.1,2.6s0.4,1.4,0.4,1.4s3-1.2,5-0.5c0-1.8-0.9-2.8,0.1-3.5
					C38.1-14.6,36.9-16.9,34.3-14.4z"/>
				<path class="st5" d="M33.9-8.6c0,0,0,2.9,1,2.9s0.8,0.2,3.2-0.1s2.5-1.1,2.5-1.1s-0.4-1.5-0.8-2.8C37.5-9.4,36.1-11.3,33.9-8.6z
					"/>
				<path class="st4" d="M7-43.4l-0.2-2.7c0,0,0.7,0.7,2-0.2c1.3-0.8-0.2,0.8,0.2,2.8C9.4-41.4,8-43.2,7-43.4z"/>
				<path class="st4" d="M10-42.8c0,0,1-2.5,0.6-3.5c0.9-0.6,2.5-0.4,3.4,0.5s-1.4,1.4-0.9,2.9S11.3-41.9,10-42.8z"/>
				<path class="st5" d="M29.5-39.3c0,0,1.4-3.8,0.4-4.6c1.4,0.1,4.4-0.4,5.1,0.6c-1.2,1.4-2.4,2.9-1.6,4.1
					C32.3-38.3,30.5-38.9,29.5-39.3z"/>
				<path class="st5" d="M44.7-34.1c-0.8,0.7-2.3,0-2.3,0s1.5,2.8,0,5.2c0,0,2.5-0.3,3.7-1C46.5-31.4,44.9-32.1,44.7-34.1z"/>
				<path class="st5" d="M48-30.9c0,0-1.5-1.4-1.7-2.8c0.7,0,2.3-1.2,3.7-0.3c1.3,0.8,0.8,2.5,0.8,2.5S48.9-30.2,48-30.9z"/>
				<path class="st5" d="M51.9-34.4c0,0,0.5,1.8,0.5,2.3c0,0,1.7-0.7,2.2-0.2c0.3-0.8,0-1.8-0.7-2.7L51.9-34.4z"/>
				<path class="st5" d="M55.9-33.8l-0.7-2.1l1-0.8l2,3.3C58.2-33.4,56.7-33.3,55.9-33.8z"/>
				<path class="st5" d="M58.9-35.4c-0.3-0.5-0.6-0.9-0.8-1c0.7-1.2,1.3-1.8,1.8-1.3c0.2,0.2,0.5,0.9,0.8,1.8L58.9-35.4z"/>
				<path class="st5" d="M63.2-38.7c0-1-2.2-0.8-2.5,0l0.8,2l2-1L63.2-38.7z"/>
				<path class="st4" d="M66.4-35.1c0,0-2.5-3.3-1.8-4.3c0.8,0,2.2-0.7,2.2-0.7s0.2,3.8,1.7,4.2C68.5-35.1,67.9-35.1,66.4-35.1z"/>
				<path class="st3" d="M69.2-36.4c0,0-1.3-2.3-1-3.3c1-0.8,1.5-0.3,1.5-0.3s1.8,3,0.7,3.3L69.2-36.4z"/>
				<path class="st3" d="M71.9-37.6l1.5-0.3c0,0-0.3-2.2-1.3-2.8l-1,0.2C71-40.6,72.2-38.9,71.9-37.6z"/>
				<path class="st3" d="M74-39.4c0,0-1.4-1.8-0.7-2.3h1l1.2,2C75.5-39.7,74.5-38.1,74-39.4z"/>
				<path class="st5" d="M76.5-40.1l-0.8-1.8c0,0,1.7,0.8,2.7,0C79.2-40.7,78.9-39.1,76.5-40.1z"/>
				<path class="st5" d="M43.4-23.1c0,0,3.8-1.2,4-2.3c-0.7-1.3-1.2-2.5-1-3.3c-2,1.8-3,1.2-3,1.2S40.9-24.6,43.4-23.1z"/>
				<path class="st5" d="M48.7-26.9l-0.8-1.8c0,0,1.7-0.2,2.5-1s0.7,0.3,1.3,1.5C52.4-27.1,49.5-26.2,48.7-26.9z"/>
				<path class="st5" d="M75.4-36.2c0,0,1.5,0.7,1.5,3c1.5-0.2,2.2-1.5,2.2-1.5l-1.4-4.2C77.7-38.9,73.9-38.1,75.4-36.2z"/>
				<path class="st4" d="M4.1-43.3l0.2-2.2l0.9-0.2c0,0,0.8,2.1,1.1,2.9S4.4-42.1,4.1-43.3z"/>
				<path class="st5" d="M4.6-40.1l-0.8-1.8c0,0,1.7,0.8,2.7,0C7.3-40.7,6.9-39.1,4.6-40.1z"/>
				<path class="st5" d="M3.4-36.2c0,0,1.5,0.7,1.5,3c1.5-0.2,2.2-1.5,2.2-1.5l-1.3-4.2C5.8-38.9,1.9-38.1,3.4-36.2z"/>
				<path class="st5" d="M31.4-30.6c0,0-2.8-1.2-4-2.3c-0.5-1.7,0.8-4.7,1.5-5.3c2.3,1.2,3.5,0.8,3.5,0.8
					C31.4-35.9,30.9-33.2,31.4-30.6z"/>
				<path class="st5" d="M25.5-34.6c0,0-3.2-1.2-4.2-0.7c0.7-1.5,1.2-4.5,1.8-4.7c1.8,1.2,2.3,1.3,3.7,0.8
					C27-37.4,25.5-34.6,25.5-34.6z"/>
				<path class="st5" d="M19.7-35.2c0,0,0.5-4,2.3-4.5c-1.2-0.3-3.5-0.2-3.5-0.2s-2.3,3-1.1,5C18-35.9,19.7-35.2,19.7-35.2z"/>
				<path class="st5" d="M16.2-37.7l1-3c0,0-2.2,0-2.7,0s-1,2.3-1,2.3S15.4-39.2,16.2-37.7z"/>
				<path class="st5" d="M32-25.1c0,0-4.2-1-5.3,0.5c0-2.7,0.3-6.7,0.3-6.7s3,2.8,4.3,2.2C31.4-29.1,33-27.1,32-25.1z"/>
				<path class="st5" d="M25-24.1c0,0-3.2,1.8-4.3,0.7c-0.3-1.7-1.2-3-0.3-4.5c1.5,0,4.5-1.6,4.5-0.5C24.9-26.4,26.2-25.7,25-24.1z"
					/>
				<path class="st5" d="M24.9-29.9c0,0-3.2-0.7-4.7,0.5c0-2,0.2-3.8,1.5-4.5c2,0.2,3.2,0.7,3.2,0.7S23.7-31.2,24.9-29.9z"/>
				<path class="st5" d="M19.3-22.8c-2.2,0.6-5.9,0.8-5.2-0.8c-0.2-1.5,0.1-4.5,0.1-4.5c1.8,0.5,4.2,0,4.2,0S17.7-25.1,19.3-22.8z"
					/>
				<path class="st5" d="M18.7-30.1c0,0-3.5,0.8-4-0.3c0.2-0.8,0.7-2.7,0.7-2.7s2.8,0.8,4-0.7C19.5-32.6,18.7-30.1,18.7-30.1z"/>
				<path class="st5" d="M12.4-24.9c0,0-2.6,0.3-3.2-1.1c0.2-1.4,0.4-2.5,0.4-2.5l3,0.5C12.5-28.1,13.4-26.1,12.4-24.9z"/>
				<path class="st5" d="M8.1-27.2c0,0,1.8-2,0.5-2.7s-2-0.5-2-0.5l-0.8,2.2C5.8-28.2,6.6-27,8.1-27.2z"/>
				<path class="st5" d="M4.5-28c0,0-1.7,0.8-2.5-0.2c-0.3-1,0.7-2.4,0.7-2.4s2.3,0.1,2.6-0.7C4.5-30.3,4.5-28,4.5-28z"/>
				<path class="st5" d="M43.2-20.4c0,0,1,1.2,2.2,0.5c0,0-1-1.3-0.7-2.2l-1.5-0.2V-20.4z"/>
				<path class="st5" d="M43.2-15.1c0,0-0.7-3,0.2-3.7c0.8,1,2,0.8,2.7,0c1.5,1.7,2.2,3.3,1.3,3.5S44.2-14.6,43.2-15.1z"/>
				<path class="st5" d="M53.2-20.9c0,0,0.2,2.7,1.2,2.8c1,0.2,2.3-1.2,2.3-1.2l-1-2.8C55.7-22.1,54.7-20.6,53.2-20.9z"/>
				<path class="st5" d="M57.9-19.9c0,0,0.2-2.8-0.8-3.2c1.8,0.5,2.5-0.2,2.5-0.2l1.3,3C60.9-20.2,59.7-18.9,57.9-19.9z"/>
				<path class="st5" d="M62-20.6l-1-3.3c0,0,1.7,0.5,3-1c1.3,1,1.2,2.8,1.2,2.8S63.4-19.9,62-20.6z"/>
				<path class="st5" d="M67-22.1c0,0,0.3-1.7-1.3-3.2c1.7,0.5,2.5-0.2,2.5-0.2l1,3C69.2-22.4,67.9-20.7,67-22.1z"/>
				<path class="st5" d="M70.4-22.7l-0.2-2.7c0,0,2.3,0.2,2.7-0.7c1,1.5,0.8,3.7,0.8,3.7S71.9-20.2,70.4-22.7z"/>
				<path class="st5" d="M6.1-22.9c0,0-2.5,0.8-3.2,0c0.7-1.5-0.2-3.5-0.2-3.5c2.2,0.2,3,0.2,3,0.2S8.1-25.9,6.1-22.9z"/>
				<path class="st5" d="M8.3-22.7c0,0,2.8,1.3,3.8,0.4c0.5-1,0.1-1.4,0.1-1.4s-2.5,0-3.1-1C8.2-23.6,8.3-22.7,8.3-22.7z"/>
				<path class="st5" d="M20-18.2c0.2-0.4-1.4-1.4-0.5-3.1c-1.2-0.1-5.4,1-5.2-0.1c0,2,1.8,4.4,2.2,4.8C17.5-17.3,19.2-16.7,20-18.2
					z"/>
				<path class="st5" d="M50.7-61.7c0-2.3,0.8-5.9,2.1-4.9c1.5,0.2,4.3,1.3,4.3,1.3c-1,1.6-1.1,4-1.1,4S53.4-62.7,50.7-61.7z"/>
				<path class="st5" d="M57.9-60.4c0,0,0.1-3.6,1.4-3.8c0.8,0.4,2.4,1.3,2.4,1.3s-1.5,2.5-0.4,4C60-59,57.9-60.4,57.9-60.4z"/>
				<path class="st5" d="M45.3-56.4c0,0,3.5-0.2,4.1,0.4c-0.7-2-0.8-2.9-0.1-4c-1.5-0.7-2.3-1.7-3.6-0.7
					C45.4-59.4,44.4-57.6,45.3-56.4z"/>
				<path class="st5" d="M46.1-62.3c-0.1,0.4,1.7-1,3.1,0.3c0.4-1.2,0.4-5.4,1.5-5c-1.9-0.5-4.7,0.5-5.2,0.9
					C45.9-65,46.6-64.2,46.1-62.3z"/>
				<path class="st5" d="M11.4-52L10-51.8c0,0-0.4-1.8-1.5-2.3c1.1-0.3,3.1-0.9,3.1-0.9S12-53.6,11.4-52z"/>
				<path class="st5" d="M42.1-10.3c0,0-1.4-2.6-0.6-3.4c1.8,0.5,5.4,0.9,6.2,0.1c0.2,1.1,1.5,2.6,0.4,3.4S43.6-8.9,42.1-10.3z"/>
				<path class="st5" d="M50.5-10.9c0,0,0.1-3.5-0.9-3.9c1.8-0.4,3.4-0.6,4.1-1.8c0.2,1.2,0.6,2.9,1,3.8S51.3-10.4,50.5-10.9z"/>
				<path class="st5" d="M56.1-13.2c0,0-0.1-2.6-0.8-3.2c1.4-0.8,2.5-1.5,2.5-1.5s2.6,3.1,1.2,4.8C58.6-13.7,57-12.6,56.1-13.2z"/>
				<path class="st5" d="M17.6-62.1v-2c0,0-1.9,0.6-2.5,0.2c-0.8,2,0.4,3.1,0.4,3.1S16.9-61.2,17.6-62.1z"/>
				<path class="st5" d="M13.8-60.4c0,0-1.8,1.3-2.9,0.9c0.1-1.3-0.1-4.3-0.1-4.3c1.3,0.1,2.3,0.6,2.9,0
					C13.1-63.2,13.2-61.3,13.8-60.4z"/>
				<path class="st5" d="M19.6-60.8c0,0,0.7,1.7,1.8,2.1c0.7,0,2.4-0.7,2.4-0.7c-0.9-1.2-1.3-3.1-2.1-2.7
					C21-61.8,19.6-60.8,19.6-60.8z"/>
				<path class="st5" d="M23.9-62.3c0,0,1.8,1.6,1.4,2.7c0.3,0.8,0.8,1.1,2.6,0.5c-0.4-2.2-2.1-3.6-2.1-3.6L23.9-62.3z"/>
				<path class="st5" d="M33.7-55.5c0,0,1.1-3,0.2-3c-2.1,0.7-2.6,0.2-3.7,0.3c-1,0.1,0.7,3.2-0.7,3.4C30.4-54,33.4-54.2,33.7-55.5z
					"/>
				<path class="st5" d="M15-52.9c0,0-1-1.4,0-3.4c-1.3,1.1-2.4,0.8-2.4,0.8l0.3,3.2C12.9-52.4,14.8-51.4,15-52.9z"/>
				<path class="st5" d="M19-49.3c-0.4-0.6-0.5-1.7,0-2.7c-1.8,0.2-3.1-0.3-3.1-0.3s-1.5,1.9-0.2,2.8C16.9-48.5,18.7-48.4,19-49.3z"
					/>
				<path class="st5" d="M32.6-9.8c0,0-2.1,0.2-3.8-1l0.9-3.6c0,0,1.5,0.5,2.5,0.4C33.2-14.1,33.7-10.6,32.6-9.8z"/>
				<path class="st5" d="M57.5-9.2c0,0,0.4-1.9-0.2-2.5c0.8-0.1,2.8-0.6,2.8-0.6l0.6,3.4C60.6-8.9,58.2-7.9,57.5-9.2z"/>
				<path class="st5" d="M61.7-10.6c0,0,1.4,0.8,1.9,0.1l0.2,1.6L62-9.3L61.7-10.6z"/>
				<path class="st5" d="M43.3-1.6c0,0,0.5-3.2,0-3.8c2.5-0.1,6-1.5,6-1.5s2.1,4.4,1.1,5.1C49.5-0.9,44.1-0.6,43.3-1.6z"/>
				<path class="st5" d="M52.2-2.7c-0.3-0.4-0.5-4.1-0.5-4.1s3.5,0.2,4.4-0.5L58-3.7C58-3.7,53.1-1.2,52.2-2.7z"/>
				<path class="st5" d="M74.3-3.8c0,0,1-1.9,0.9-3c-1.6,0.4-2.1,0.9-3.1,0.5l0.1,2.6C72.2-3.7,74-3.2,74.3-3.8z"/>
				<path class="st5" d="M70.7-4.2l-0.4-2.1c0,0-2.5,1.8-3.2,1.1l-0.1,2C67-3.2,69.3-2.4,70.7-4.2z"/>
				<path class="st5" d="M66-3.3v-1.5c0,0-2,1.6-2.5,0.8l-0.2,1.2L66-3.3z"/>
				<path class="st5" d="M43.3-73.6c0,0,0.5-3.3,0-3.8c2.5-0.1,6-1.5,6-1.5s2.1,4.4,1.1,5.1C49.5-72.9,44.1-72.6,43.3-73.6z"/>
				<path class="st5" d="M52.2-74.7c-0.3-0.4-0.5-4.1-0.5-4.1s3.5,0.2,4.4-0.5l1.9,3.6C58-75.7,53.1-73.2,52.2-74.7z"/>
				<path class="st5" d="M74.3-75.8c0,0,1-1.9,0.9-3c-1.6,0.4-2.1,0.9-3.1,0.5l0.1,2.6C72.2-75.7,74-75.2,74.3-75.8z"/>
				<path class="st5" d="M70.7-76.2l-0.4-2.1c0,0-2.5,1.8-3.2,1.1l-0.1,2C67-75.2,69.3-74.4,70.7-76.2z"/>
				<path class="st5" d="M66-75.3v-1.5c0,0-2,1.6-2.5,0.8l-0.2,1.3L66-75.3z"/>
				<polygon class="st5" points="55.6,-43.8 55.3,-46.1 57.8,-46.9 57.3,-43.8 				"/>
				<polygon class="st5" points="56.1,-47.8 58.5,-47.9 58.6,-50.9 56.6,-51.1 				"/>
				<polygon class="st5" points="59.5,-44.6 61.1,-44.9 60.2,-46.8 59.3,-47.1 				"/>
				<polygon class="st5" points="59.6,-48.2 60.7,-48.1 61.6,-50.9 59.8,-50.9 				"/>
				<path class="st5" d="M62.3-48.7c0,0,1.1-0.8,1.9-0.2c0.6-0.8,0.1-1.2,0.1-2.4c-0.5-0.1-2-0.2-2-0.2S63.5-51.3,62.3-48.7z"/>
				<path class="st5" d="M65.8-49.6l2.1-1.1c0,0,0.5-1.5-0.4-1.9c-1.4,0.8-2.1,1-2.1,1S67-50.7,65.8-49.6z"/>
				<path class="st3" d="M76.2-52.8V-56c0,0,0.5-0.6,1.5-0.1s0.9,3,0.9,3S77.3-52.6,76.2-52.8z"/>
				<path class="st5" d="M11.3-56.3l-1.1-1.8c0,0-2.4,1.5-3.3,0.9c0.2,1.1,0.9,2.1,0.9,2.1L11.3-56.3z"/>
				<path class="st5" d="M63.1-58.9c0,0,0.2-2.5,0.9-3.1c2.1,0.8,4.2,0.9,4.2,0.9l-0.6,3.4C67.6-57.8,63.8-56.7,63.1-58.9z"/>
				<path class="st5" d="M62.6-56.4l-1.2,3.6c3.1,0.4,5.8-1.6,5.8-1.6v-1.9C67.1-56.3,63.5-55.3,62.6-56.4z"/>
				<polygon class="st5" points="68.5,-54.3 68.7,-56.4 71.1,-57.2 71.2,-55.6 				"/>
				<polygon class="st5" points="72.3,-55.9 72.3,-57.7 74.2,-57.9 75.2,-56.9 				"/>
				<path class="st5" d="M75.1-59.8l-0.2-1.6c0,0,2.4,0.2,3.4-1c0.4,1.2,0.1,2,0.1,2S77.2-58.9,75.1-59.8z"/>
				<path class="st5" d="M76.1-63.6l-0.2-3c0,0,1.6,0.2,2.8-0.4c0.8,1.2,0.6,2.8,0.6,2.8S77.7-62.9,76.1-63.6z"/>
				<g>
					<path class="st8" d="M37.5-62.7c0,0-1.5-2.5-0.1-3s4.8-2,7.2-1.4c-0.1,1.6,0.1,6.6-1.1,5.2C42.1-62.6,41.3-64.2,37.5-62.7z"/>
					<path class="st8" d="M54.5-67.9c0,0,0.4-2.6,1.9-2.8c1.3,0.6,2.3,1.1,2.3,1.1l-1.2,2.7C57.5-66.9,55.4-66.6,54.5-67.9z"/>
					<path class="st8" d="M52.2-71.5c0,0-0.8,1.5-0.1,2.6c0.8,0.7,1.3,0.5,1.3,0.5s0.1-2.1,1.2-2.4C53.7-72,52.2-71.5,52.2-71.5z"/>
					<path class="st8" d="M28.9-68.7c0,0,0.8-1.9,0.4-3.3c-0.6,0.3-3.1-0.3-3.9,1c0.4,1,0.7,2.8,0.7,2.8S28.4-67.7,28.9-68.7z"/>
					<path class="st8" d="M15.4-66.7c0,0.8,0,1.6-0.3,1.9c0,0.7,2.1-0.6,2.1-0.6s-0.1-0.7-0.1-1.6L15.4-66.7z"/>
					<path class="st8" d="M21.1-63.6L19-62.5c0.1-0.6,0-2.5,0-2.5s1.6,0,1.7-1.1C20.8-67.3,21.1-63.6,21.1-63.6z"/>
					<path class="st8" d="M20.2-53.6l-0.4-3.5c0,0-1.3,1.1-3.1,0.3c-0.8,1.5,0.1,3.1,0.1,3.1S19.2-52.4,20.2-53.6z"/>
					<path class="st8" d="M34.7-49.4c0,0-1.5-3.2-0.8-3.9c-1.8,0.4-3.3,0.8-4.5,0c0.3,1.2,0.6,2.9,0.6,3.8
						C30-48.5,34.1-48.6,34.7-49.4z"/>
					<path class="st8" d="M28.6-49.2c0,0-0.9-2.5-0.6-3.3c-1.6-0.1-2.9-0.4-2.9-0.4s-1.1,4,0.8,4.9C26.1-48.7,28.1-48.3,28.6-49.2z"
						/>
					<path class="st8" d="M43-43.2c0,0,1.2-3.4,0.9-4.8c1.2-0.5,2.5-1.5,2.9-1.5s0.8,4.9-0.2,6C46.5-43.4,43.3-41.9,43-43.2z"/>
					<path class="st8" d="M47.7-43.2l2.5-0.1c0,0,1.6-7,0.9-7.4l-3,1C48.1-49.7,50.1-44.8,47.7-43.2z"/>
					<path class="st8" d="M34.3-67.8L34-70.7c0,0-3.4-0.1-3.6-0.9l-0.2,3.1C30.1-68.4,33.1-66.3,34.3-67.8z"/>
					<path class="st8" d="M45.1-68.6c0,0-0.1-2.7-0.5-3c1.2,0,5,0.2,5.9-0.5l-0.1,3.5C50.3-68.6,46.5-67.3,45.1-68.6z"/>
					<path class="st8" d="M69.8-58.3v-2.6c0,0,3.5,0.5,3.8-1c0.8,1,0.1,2.9,0.1,2.9L69.8-58.3z"/>
					<path class="st5" d="M4.1-63.6l-0.2-3c0,0,1.6,0.2,2.8-0.4c0.8,1.2,0.6,2.8,0.6,2.8S5.7-62.9,4.1-63.6z"/>
				</g>
			</g>
			<g>
				<g>
					<path class="st1" d="M3.3-43.7l0.2-2.2l0.9-0.2c0,0,0.8,2.1,1.1,2.9S3.5-42.4,3.3-43.7z"/>
					<path class="st1" d="M3.7-40.4l-0.8-1.8c0,0,1.7,0.8,2.7,0C6.4-41.1,6-39.4,3.7-40.4z"/>
					<path class="st1" d="M2.5-36.6c0,0,1.5,0.7,1.5,3c1.5-0.2,2.2-1.5,2.2-1.5l-1.3-4.2C4.9-39.2,1-38.4,2.5-36.6z"/>
					<path class="st1" d="M5.4-23.2c0,0-2.5,0.8-3.2,0C2.9-24.7,2-26.7,2-26.7c2.2,0.2,3,0.2,3,0.2S7.4-26.2,5.4-23.2z"/>
					<path class="st1" d="M6.8-19.3c0,0-1-1.6-0.5-2.5c-1.1-0.4-2-1-2.9-0.2c0,1.1,0.1,2.6,1.1,2.6L6.8-19.3z"/>
					<path class="st1" d="M5-18.1H3.1c-0.6,1-0.6,2.9,0,3.4c1.1,0.1,1.1,0.1,1.1,0.1S3.9-17.4,5-18.1z"/>
					<path class="st1" d="M6.5-8c0,0-0.8-1.5,0.2-2.5c0,0-2-1.8-3.1,0L3.2-8.1C3.3-8.1,4.9-7,6.5-8z"/>
					<path class="st1" d="M6.5-5.4c0-0.4,0-1.4,0-1.4S4.1-6,3.5-6.9L2.9-4.1C2.9-4.1,6.9-2.1,6.5-5.4z"/>
					<path class="st1" d="M6.5-77.4c0-0.4,0-1.4,0-1.4s-2.4,0.8-3-0.1l-0.6,2.8C2.9-76.1,6.9-74.1,6.5-77.4z"/>
					<path class="st1" d="M3.4-53.1v-3.2c0,0,0.5-0.6,1.5-0.1s0.9,3,0.9,3S4.5-52.9,3.4-53.1z"/>
					<polygon class="st1" points="3.8,-68.8 3.4,-70.9 5.9,-70.9 7,-68.7 					"/>
					<path class="st1" d="M3.3-57.8L2.4-59c0,0,2.5,0.5,3-0.4l1.1,1C6.5-58.4,5.4-57.4,3.3-57.8z"/>
					<path class="st1" d="M2.3-60.1L2-61.8c0,0,2.4,0.2,3.4-1c0.4,1.2,0.1,2,0.1,2S4.4-59.3,2.3-60.1z"/>
					<path class="st1" d="M3.3-63.9l-0.3-3c0,0,1.6,0.2,2.8-0.4c0.8,1.2,0.6,2.8,0.6,2.8S4.9-63.3,3.3-63.9z"/>
					<path class="st1" d="M3.4-72.5l-0.3-2.2c0,0,1.4,1.1,2.8,0.1c0.6,0.6,0.6,2,0.6,2S4.5-71.7,3.4-72.5z"/>
				</g>
				<path class="st4" d="M7.6-18.9c0,0-1-1.6-0.5-2.5c-1.1-0.4-2-1-2.9-0.2c0,1.1,0.1,2.6,1.1,2.6L7.6-18.9z"/>
				<path class="st4" d="M5.9-17.8H4c-0.6,1-0.6,2.9,0,3.4c1.1,0.1,1.1,0.1,1.1,0.1S4.7-17.1,5.9-17.8z"/>
				<polygon class="st4" points="4.6,-68.4 4.2,-70.6 6.7,-70.6 7.8,-68.3 				"/>
				<path class="st4" d="M4.1-57.4l-0.9-1.2c0,0,2.5,0.5,3-0.4l1.1,1C7.3-58.1,6.2-57.1,4.1-57.4z"/>
				<path class="st4" d="M4.2-72.2L4-74.3c0,0,1.4,1.1,2.8,0.1c0.6,0.6,0.6,2,0.6,2S5.3-71.3,4.2-72.2z"/>
				<g>
					<path class="st5" d="M4.5-28c0,0-1.7,0.8-2.5-0.2c-0.3-1,0.7-2.4,0.7-2.4s2.3,0.1,2.6-0.7C4.5-30.3,4.5-28,4.5-28z"/>
					<path class="st5" d="M6.2-22.9c0,0-2.5,0.8-3.2,0c0.7-1.5-0.2-3.5-0.2-3.5c2.2,0.2,3,0.2,3,0.2S8.2-25.9,6.2-22.9z"/>
					<path class="st3" d="M1.1-47.2c0,0,0.8-2.9-0.2-3.9c2-0.2,2.4-1.1,3.7,0c0.6,0.6,1,4.4-0.6,4S1.1-47.2,1.1-47.2z"/>
				</g>
				<g>
					<path class="st2" d="M5.1-11.6H3.8c0,0-0.5-1.2,0.1-1.9h1.5C5.5-13.4,4.5-12.2,5.1-11.6z"/>
					<path class="st2" d="M7.3-7.7c0,0-0.8-1.5,0.2-2.5c0,0-2-1.8-3.1,0L4-7.8C4.1-7.8,5.7-6.7,7.3-7.7z"/>
					<path class="st2" d="M7.3-5.1c0-0.4,0-1.4,0-1.4s-2.4,0.8-3-0.1L3.7-3.8C3.7-3.8,7.7-1.8,7.3-5.1z"/>
					<path class="st2" d="M7.3-77.1c0-0.4,0-1.4,0-1.4s-2.3,0.8-3-0.1l-0.6,2.8C3.7-75.8,7.7-73.8,7.3-77.1z"/>
				</g>
				<path class="st4" d="M4.1-43.3l0.2-2.2l0.9-0.2c0,0,0.8,2.1,1.1,2.9S4.3-42.1,4.1-43.3z"/>
				<path class="st5" d="M4.5-40.1l-0.8-1.8c0,0,1.7,0.8,2.7,0C7.2-40.7,6.9-39.1,4.5-40.1z"/>
				<path class="st5" d="M3.4-36.2c0,0,1.5,0.7,1.5,3C6.4-33.4,7-34.7,7-34.7l-1.3-4.2C5.7-38.9,1.9-38.1,3.4-36.2z"/>
				<path class="st3" d="M4.2-52.8V-56c0,0,0.5-0.6,1.5-0.1s0.9,3,0.9,3S5.3-52.6,4.2-52.8z"/>
				<path class="st5" d="M3.1-59.8l-0.2-1.6c0,0,2.4,0.2,3.4-1c0.4,1.2,0.1,2,0.1,2S5.2-58.9,3.1-59.8z"/>
				<path class="st5" d="M4.1-63.6l-0.2-3c0,0,1.6,0.2,2.8-0.4c0.8,1.2,0.6,2.8,0.6,2.8S5.7-62.9,4.1-63.6z"/>
			</g>
			<g>
				<path class="st1" d="M78.5-5.4c0-0.4,0-1.4,0-1.4s-2.4,0.8-3-0.1l-0.6,2.8C74.9-4.1,78.9-2.1,78.5-5.4z"/>
				<g>
					<path class="st2" d="M79.3-5.1c0-0.4,0-1.4,0-1.4s-2.4,0.8-3-0.1l-0.6,2.8C75.7-3.8,79.7-1.8,79.3-5.1z"/>
				</g>
			</g>
			<g>
				<path class="st1" d="M6.5-5.4c0-0.4,0-1.4,0-1.4S4.1-6,3.5-6.9L2.9-4.1C2.9-4.1,6.9-2.1,6.5-5.4z"/>
				<g>
					<path class="st1" d="M40.6-1.4c0,0-5.9-0.4-7,1.1c-0.2-1.8-1.5-3.9-0.4-5c1.1-0.5,4.7,1.2,6.2-0.9C39.8-6.7,42-4.9,40.6-1.4z"
						/>
					<path class="st1" d="M57.6-7l0.6,3.4c0,0,3.1,0.2,3.1-1.1c0-0.6-0.9-3.1-0.9-3.1S58.8-6.1,57.6-7z"/>
					<path class="st1" d="M25.1-5.4l-0.6,2.1c0,0-2.1,0.2-2.2-0.6s0.2-1.5,0.2-1.5H25.1z"/>
					<path class="st1" d="M21.4-5.5L21-3.4c0,0-2.1,0.1-2.6-0.6s1.2-2,1.2-2S20.8-5.1,21.4-5.5z"/>
					<path class="st1" d="M17.4-4.5c0,0-0.2-1.8,0.5-2.1c-0.9-0.6-2-0.9-2-0.9l-1.5,2.2C14.4-5.3,16.4-3.4,17.4-4.5z"/>
					<path class="st1" d="M78.5-5.4c0-0.4,0-1.4,0-1.4s-2.4,0.8-3-0.1l-0.6,2.8C74.9-4.1,78.9-2.1,78.5-5.4z"/>
					<path class="st1" d="M42.5-1.9c0,0,0.5-3.2,0-3.8c2.5-0.1,6-1.5,6-1.5s2.1,4.4,1.1,5.1C48.6-1.3,43.2-0.9,42.5-1.9z"/>
					<path class="st1" d="M51.4-3c-0.3-0.4-0.5-4.1-0.5-4.1s3.5,0.2,4.4-0.5L57.2-4C57.1-4,52.3-1.5,51.4-3z"/>
					<path class="st1" d="M73.5-4.1c0,0,1-1.9,0.9-3c-1.6,0.4-2.1,0.9-3.1,0.5L71.4-4C71.4-4,73.1-3.5,73.5-4.1z"/>
					<path class="st1" d="M69.9-4.5l-0.4-2.1c0,0-2.5,1.8-3.2,1.1l-0.1,2C66.1-3.5,68.5-2.8,69.9-4.5z"/>
					<path class="st1" d="M65.1-3.7v-1.5c0,0-2,1.6-2.5,0.8l-0.2,1.2L65.1-3.7z"/>
					<path class="st1" d="M13.2-3.9c0,0-2.2,1.4-2.2,0.2c0-0.8,0.2-1.9,0.2-1.9l2.4-0.6C13.6-6.1,13.5-4.9,13.2-3.9z"/>
					<path class="st1" d="M9.9-3.4c0,0-2,1.4-2.5,0.6l0.4-2.6l1.4-0.1L9.9-3.4z"/>
				</g>
				<path class="st4" d="M58.5-6.7l0.6,3.4c0,0,3.1,0.2,3.1-1.1c0-0.6-0.9-3.1-0.9-3.1S59.6-5.8,58.5-6.7z"/>
				<path class="st4" d="M26-5.1l-0.7,2.2c0,0-2.1,0.2-2.2-0.6S23.3-5,23.3-5L26-5.1L26-5.1z"/>
				<g>
					<path class="st2" d="M22.2-5.2l-0.4,2.1c0,0-2.1,0.1-2.6-0.6s1.2-2,1.2-2S21.6-4.8,22.2-5.2z"/>
					<path class="st2" d="M18.2-4.2c0,0-0.2-1.8,0.5-2.1c-0.9-0.6-2-0.9-2-0.9l-1.5,2.3C15.2-4.9,17.2-3.1,18.2-4.2z"/>
					<path class="st2" d="M79.3-5.1c0-0.4,0-1.4,0-1.4s-2.4,0.8-3-0.1l-0.6,2.8C75.7-3.8,79.7-1.8,79.3-5.1z"/>
					<path class="st2" d="M7.3-5.1c0-0.4,0-1.4,0-1.4s-2.4,0.8-3-0.1L3.7-3.8C3.7-3.8,7.7-1.8,7.3-5.1z"/>
					<path class="st2" d="M14.1-3.6c0,0-2.2,1.4-2.2,0.2c0-0.8,0.2-1.9,0.2-1.9l2.4-0.6C14.5-5.8,14.3-4.6,14.1-3.6z"/>
					<path class="st2" d="M10.7-3.1c0,0-2,1.4-2.5,0.6l0.4-2.6L10-5.2L10.7-3.1z"/>
				</g>
				<path class="st5" d="M41.4-1.1c0,0-5.9-0.4-7,1.1c-0.2-1.8-1.5-3.9-0.4-5c1.1-0.5,4.7,1.2,6.2-0.9C40.7-6.3,42.8-4.6,41.4-1.1z"
					/>
				<path class="st5" d="M43.3-1.6c0,0,0.5-3.2,0-3.8c2.5-0.1,6-1.5,6-1.5s2.1,4.4,1.1,5.1C49.5-0.9,44.1-0.6,43.3-1.6z"/>
				<path class="st5" d="M52.2-2.7c-0.3-0.4-0.5-4.1-0.5-4.1s3.5,0.2,4.4-0.5L58-3.7C58-3.7,53.1-1.2,52.2-2.7z"/>
				<path class="st5" d="M74.3-3.8c0,0,1-1.9,0.9-3c-1.6,0.4-2.1,0.9-3.1,0.5l0.1,2.6C72.2-3.7,74-3.2,74.3-3.8z"/>
				<path class="st5" d="M70.7-4.2l-0.4-2.1c0,0-2.5,1.8-3.2,1.1l-0.1,2C67-3.2,69.3-2.4,70.7-4.2z"/>
				<path class="st5" d="M66-3.3v-1.5c0,0-2,1.6-2.5,0.8l-0.2,1.2L66-3.3z"/>
			</g>
			<g>
				<g>
					<path class="st1" d="M6.5-5.4c0-0.4,0-1.4,0-1.4S4.1-6,3.5-6.9L2.9-4.1C2.9-4.1,6.9-2.1,6.5-5.4z"/>
				</g>
				<g>
					<path class="st2" d="M7.3-5.1c0-0.4,0-1.4,0-1.4s-2.4,0.8-3-0.1L3.7-3.8C3.7-3.8,7.7-1.8,7.3-5.1z"/>
				</g>
			</g>
		</g>
	</g>
</pattern>
<g id="Layer_1_2_" class="st9">
	<g id="_x33_XAIei.tif" class="st10">
		
			<image style="overflow:visible;enable-background:new    ;" width="2013" height="1938" id="Layer_1_3_" xlink:href="8D58AF94FB55AD63.png"  transform="matrix(0.2393 0 0 0.2393 178.6709 67.6733)">
		</image>
	</g>
</g>
<g id="lunchbox">
	
		<linearGradient id="SVGID_1_" gradientUnits="userSpaceOnUse" x1="580.9" y1="316.442" x2="615.9" y2="316.442" gradientTransform="matrix(1 0 0 -1 0 602)">
		<stop  offset="0" style="stop-color:#FFFFFF"/>
		<stop  offset="0.2032" style="stop-color:#FFFFFF"/>
		<stop  offset="0.866" style="stop-color:#231F20"/>
		<stop  offset="1" style="stop-color:#231F20"/>
	</linearGradient>
	<path class="st11" d="M580.9,295.6c0,0,5-40,35-7.1c-7.1,3.6-7.1,3.6-7.1,3.6s-15.5-21.4-18.9,3.4
		C580.9,295.6,580.9,295.6,580.9,295.6z"/>
	<path class="st12" d="M640.7,343.7l-64.5,15c-8.9,2.1-17.9-3.5-20-12.5l-5.9-25.5c-2.1-8.9,3.5-17.9,12.5-20l64.5-15
		c8.9-2.1,17.9,3.5,20,12.5l5.9,25.5C655.3,332.6,649.6,341.6,640.7,343.7z"/>
	
		<linearGradient id="SVGID_2_" gradientUnits="userSpaceOnUse" x1="568.5999" y1="282.1" x2="652.1357" y2="282.1" gradientTransform="matrix(1 0 0 -1 0 602)">
		<stop  offset="0" style="stop-color:#B0A7D2"/>
		<stop  offset="0" style="stop-color:#5B5597"/>
		<stop  offset="9.266827e-02" style="stop-color:#5A559B"/>
		<stop  offset="0.6021" style="stop-color:#3F3C4E"/>
		<stop  offset="1" style="stop-color:#000000"/>
	</linearGradient>
	<path class="st13" d="M639.1,343.9l-44.5,10c-9,2-17.9-3.7-19.9-12.6l-5.7-25.5c-2-9,3.7-17.9,12.6-19.9l44.5-10
		c9-2,17.9,3.7,19.9,12.6l5.7,25.5C653.8,332.9,648.1,341.9,639.1,343.9z"/>
	<path class="st14" d="M609.1,301.2l-26,6.1c-0.9,0.2-1.5,1.1-1.2,2l0.1,0.2c0.2,0.9,1.1,1.5,2,1.2l26-6.1c0.9-0.2,1.5-1.1,1.2-2
		l-0.1-0.2C610.9,301.6,610,301,609.1,301.2z"/>
	<circle class="st15" cx="636.9" cy="331.7" r="6.8"/>
	<ellipse class="st15" cx="733.3" cy="233.7" rx="0.3" ry="1.3"/>
	<ellipse class="st16" cx="634.5" cy="331" rx="0.8" ry="0.7"/>
	<ellipse class="st16" cx="638.6" cy="331.5" rx="0.9" ry="1"/>
	<line class="st17" x1="634.5" y1="335.2" x2="640.4" y2="334.6"/>
</g>
<g id="back_legs">
	
		<linearGradient id="SVGID_3_" gradientUnits="userSpaceOnUse" x1="186.7561" y1="213.4046" x2="434.3" y2="213.4046" gradientTransform="matrix(1 0 0 -1 0 602)">
		<stop  offset="0.3326" style="stop-color:#F06656"/>
		<stop  offset="0.6606" style="stop-color:#C0242E"/>
		<stop  offset="0.8229" style="stop-color:#9E1D24"/>
	</linearGradient>
	<path class="st18" d="M434.3,492.3c0,0-13.8,19.3-19.5-3.2c-1.6-5.9-17.3,5,13.6-83.6c7.2-89-50.2-117-56.7-122.5
		c-1.8-1.5-3.9-3-6.1-4.4c-1.6-2.7-2.8-4.5-2.8-4.5s-11-10.4-19.9-15.4c-5.8-7.8-12-10.2-13.7,10.5c-9,0.4-14,3.9-0.5,15.8
		c0.1,19.2,1.1,35-1.5,47.6c-6.5,31.3-19.5,47-60.7,66c-5,2.3-13.6,6.3-19,7.4c-30.9,6.6-52.9,30.1-52.9,30.1s-15.6,21.1-2.8,44.2
		c3.2,5.8,11.8,3.8,29.6-7.4c0,0-23.7-0.1-8.7-17.8c3.9-4.7-14.1-11.2,76.1-37.2c54-30.3,64.4-72.7,66.5-97.6
		c1.7,4.3,3,8.3,3.9,12.2c7,31.2,1.6,50.9-28.1,85.2c-3.6,4.2-9.8,11.4-14.2,14.6c-25.4,18.8-35.8,49.2-35.8,49.2
		s-5.5,25.7,15.7,41.4c5.4,4,12.3-1.4,23.9-19c0,0-21.7,9.7-15.3-12.6c1.6-5.9-17.4-4.4,54-65.3c27.4-39.2,30-72.7,26-96.6
		c18.2,21.4,22.2,41.4,14.5,82.9c-1,5.4-2.7,14.8-4.9,19.8c-12.4,29-6,60.6-6,60.6s8.2,24.9,34.4,27.8
		C429.9,521.5,433.1,513.3,434.3,492.3z"/>
</g>
<g id="body">
	
		<linearGradient id="SVGID_4_" gradientUnits="userSpaceOnUse" x1="184.2405" y1="235.6762" x2="608.7942" y2="235.6762" gradientTransform="matrix(1 0 0 -1 0 602)">
		<stop  offset="5.809295e-02" style="stop-color:#F69288"/>
		<stop  offset="0.125" style="stop-color:#F06656"/>
		<stop  offset="0.3326" style="stop-color:#F06656"/>
		<stop  offset="0.6606" style="stop-color:#C0242E"/>
		<stop  offset="0.8229" style="stop-color:#BE212D"/>
	</linearGradient>
	<path class="st19" d="M604.5,258.3c-10.5-24.2-60.6-20.5-60.6-20.5s-39.1,1.5-40.8,47c-0.1,3.8-1.9,10.2-2.7,15.2
		c-0.4,2.1-0.8,3-2.3,3.8c-9.1,11.9-11.1,20.4-18.3,23.8c-12.3,5.8-25.9-0.6-36.2-3.2c-12.7-3.2-22.3-13.1-37.8-25.1
		c-0.5-0.4-1-0.8-1.6-1.2c0.9-0.2,1.8-0.5,2.6-0.8l65.4-17.9c7.1,0,12.8-5.8,12.8-12.8v-63.4c0-7.1-5.8-12.8-12.8-12.8l-66.8-5.5
		c-1.7-0.5-3.5-0.8-5.4-0.8h-82.2c-10.7,0-19.5,8.8-19.5,19.5v75.6c0,9.8,7.3,17.9,16.7,19.3c-3.3,11.4-11.7,35.1-26.2,41.6
		c-19.3,8.6-20,11.4-29.3-7.9c-6.4-28.6-10-37.1-10-37.1s-10-24.3-42.8-5s-20,36.4-20,36.4l12.1,1.4l8.6-20.7
		c0,0,25.7-24.3,26.4,7.9c0.7,32.1,18.6,49.3,18.6,49.3c17.1,6.4,27.1,5,32.8,2.1c0,0,9.5-1.7,20.5-9c-3,24.1,1,57.8,30.9,96.1
		c74.5,57,55.4,56.6,57.3,62.4c7.5,21.9-14.6,13.4-14.6,13.4c12.5,16.9,19.7,22,24.9,17.7c20.3-16.8,13.5-42.2,13.5-42.2
		s-12-29.9-38.3-47.3c-4.6-3-11.2-9.8-15-13.8c-31.4-32.7-37.9-52.1-32.5-83.6c1.7-9.8,6.1-20.6,11.3-33.3c0,0.7,0.1,1.5,0.1,2.2
		c0.8,8.4-9,71.5,68.2,116.4c90.4,25.2,72.5,31.8,76.4,36.5c15.2,17.5-8.6,17.8-8.6,17.8c17.9,11,26.5,13,29.7,7.2
		c12.6-23.2-3.2-44.2-3.2-44.2s-22.2-23.3-53.2-29.6c-5.4-1.1-14-5-19-7.3c-41.3-18.6-54.6-34.2-61.3-65.5
		c-1.2-5.6-1.7-11.9-1.9-18.9c6,20.1,24.5,66,95.9,83.4c93.8-1.6,78.6,9.9,83.6,13.3c19.5,12.5-3.1,19.5-3.1,19.5
		c20.3,5.5,29.1,5,30.5-1.6c5.5-25.8-15.6-41.4-15.6-41.4s-27.9-16-59.4-13.3c-5.4,0.5-14.9-0.8-20.3-1.6
		c-44.9-6.1-62-17.3-77.4-45.3c-4.4-8.1-7.6-18.4-11.1-30.4c2.7,2.5,6,5.3,9.1,7.2c7.1,4.6,57,48.8,115.7-13.9
		c12.8-23.3,4-39.6,9.5-49.8c12.3-22.7,34.1-22.2,53.7-6.8c0.6,0.5,4.3,3.8,5,4.3c6.1,4.8,0.6,11.4,8.2,17.8
		c0.8,0.7,1.9,0.9,2.9,0.7c2.6-0.6,5.1-1.8,7.1-3.6C612.9,272.6,606.6,263.3,604.5,258.3z"/>
</g>
<g id="fish_pole">
	<circle class="st20" cx="170.1" cy="285.3" r="21.6"/>
	
		<linearGradient id="SVGID_5_" gradientUnits="userSpaceOnUse" x1="188.5189" y1="280.55" x2="218.0811" y2="280.55" gradientTransform="matrix(1 0 0 -1 0 602)">
		<stop  offset="0" style="stop-color:#A06B29"/>
		<stop  offset="0.2032" style="stop-color:#A06B29"/>
		<stop  offset="0.866" style="stop-color:#623C17"/>
		<stop  offset="1" style="stop-color:#5F3916"/>
	</linearGradient>
	<path class="st21" d="M211.9,376.4l-1,0.1c-3.9,0.6-7.6-2.2-8.2-6.1l-14.1-95.7c-0.6-3.9,2.2-7.6,6.1-8.2l1-0.1
		c3.9-0.6,7.6,2.2,8.2,6.1l14.1,95.7C218.6,372.2,215.8,375.9,211.9,376.4z"/>
	<path class="st22" d="M202.5,269.5l-14,2.1c-3.9,0.6-7.6-2.2-8.2-6.1l-0.1-1c-0.6-3.9,2.2-7.6,6.1-8.2l14-2.1
		c3.9-0.6,7.6,2.2,8.2,6.1l0.1,1C209.2,265.3,206.5,268.9,202.5,269.5z"/>
	<polygon class="st23" points="191.9,256.7 159.1,35 198,257 	"/>
	<path class="st22" d="M196,286l-23.2,6.7c-3,0.9-6.3-0.9-7.1-3.9l-0.2-0.8c-0.9-3,0.9-6.3,3.9-7.1l23.2-6.7c3-0.9,6.3,0.9,7.1,3.9
		l0.2,0.8C200.8,281.9,199,285.1,196,286z"/>
</g>
<g id="face">
	<g>
		<path class="st24" d="M327.1,222.8h-5.6c-0.7-0.3-1.4-0.5-2.1-0.5c-0.8,0-1.5,0.2-2.1,0.5H305c-1,0-1.8,0.8-1.8,1.8
			s0.8,1.8,1.8,1.8h9.5c-0.1,0.5-0.2,1.1-0.2,1.7c0,3.2,2.3,5.8,5.1,5.8c2.8,0,5.1-2.6,5.1-5.8c0-0.6-0.1-1.2-0.2-1.7h2.9
			c1,0,1.8-0.8,1.8-1.8C328.9,223.6,328.1,222.8,327.1,222.8z"/>
		<path class="st24" d="M373.1,223.2h-5.6c-0.7-0.3-1.4-0.5-2.1-0.5s-1.5,0.2-2.1,0.5H351c-1,0-1.8,0.8-1.8,1.8s0.8,1.8,1.8,1.8h9.5
			c-0.1,0.5-0.2,1.1-0.2,1.7c0,3.2,2.3,5.8,5.1,5.8c2.8,0,5.1-2.6,5.1-5.8c0-0.6-0.1-1.2-0.2-1.7h2.9c1,0,1.8-0.8,1.8-1.8
			C374.9,224,374.1,223.2,373.1,223.2z"/>
		
			<ellipse transform="matrix(0.9997 -2.415886e-02 2.415886e-02 0.9997 -5.1013 11.1472)" class="st25" cx="458.8" cy="216.7" rx="7.9" ry="6.8"/>
		<ellipse class="st26" cx="445.2" cy="234.2" rx="7.1" ry="5"/>
		<ellipse class="st26" cx="458.8" cy="244.6" rx="5" ry="5.4"/>
		<ellipse class="st26" cx="402.8" cy="273.5" rx="6.1" ry="7.1"/>
		<ellipse class="st26" cx="423.8" cy="274.9" rx="4.3" ry="5"/>
	</g>
</g>
<g id="hat">
	<pattern  id="SVGID_6_" xlink:href="#Alligator" patternTransform="matrix(1 0 0 -1 -54.8 -16383.1992)">
	</pattern>
	<path class="st27" d="M468.3,164.9c2.9-34.3-2.1-46-2.1-46s-14.2-2.7-20.9-8c-53.8-17.1-107.6,1.6-107.6,1.6s-0.3,4.6-6.4,7.2
		c2.1,15.5-5.6,27-5.6,27s-3,3.7-9.2,24c-6.3,0-32.8,6.3-39.9,8.6c-7,2.3-14.1,6.3-14.1,6.3s8.8,2.4,23.3,5c5.4,7,20.6,9.1,20.6,9.1
		s22.2,1.6,56.8-4.8s57.8,2.1,66.9,4.8s40.4-6.7,51.7-13.7c11.8-3.5,31.6-1.6,31.6-1.6S498,169.7,468.3,164.9z"/>
	
		<linearGradient id="hat_ribon_1_" gradientUnits="userSpaceOnUse" x1="316.4" y1="448.7207" x2="468.4543" y2="448.7207" gradientTransform="matrix(1 0 0 -1 0 602)">
		<stop  offset="0.525" style="stop-color:#A06B29"/>
		<stop  offset="1" style="stop-color:#5F3916"/>
	</linearGradient>
	<path id="hat_ribon_2_" class="st28" d="M322.6,152c0,0,75-34.3,145.4-2.9c0.8,15,0.3,15.8,0.3,15.8s-80.1-18.4-151.9,5.8
		C321.8,155.5,322.6,152,322.6,152z"/>
	<g id="hook_1">
		<polygon class="st29" points="400.3,134.1 403.7,133 404.3,135.7 407.5,135.2 404.5,128.5 		"/>
		<path class="st29" d="M415,122.6c6.7-20.9,6.7-20.9,6.7-20.9l-4-1.9l-7.2,24.9c0,0,7-0.3,5.4,17.1c-4,1.9-4.6-1.6-4.6-1.6
			s-2.4-0.8-1.6,2.7s4,5.4,4,5.4c6.2,0,5.6-5.9,5.6-5.9S421.7,126.1,415,122.6z"/>
	</g>
	<g id="hook_2">
		<path class="st30" d="M458.9,109.1l-2.8-3.5l-17.5,19.1c0,0,6.4,2.8-2.8,17.7c-1.4,0-2.3-0.4-2.8-0.9c-1.4,1-2.6,2.2-2.9,3.7
			c0.4,1.2,0.9,2,0.9,2c5.5,2.7,7.6-2.8,7.6-2.8s9.4-13.6,4.9-19.7C458.9,109.1,458.9,109.1,458.9,109.1z"/>
		<polygon class="st30" points="430.5,137.3 433.5,138.5 434.4,131.2 427.8,133.9 431.4,134.7 		"/>
	</g>
</g>
<g id="speech_bubble">
	<path class="st17" d="M637,139.6c0,24.5-28.2,44.4-63,44.4c-8,0-15.7-1.1-22.8-3c-3.4-0.9-37.2,39.3-40.2,38
		c-3.3-1.4,24.2-44.4,21.3-46.2c-13.1-8.1-21.3-20-21.3-33.3c0-24.5,28.2-44.4,63-44.4S637,115.1,637,139.6z"/>
	<rect x="525.5" y="124" class="st0" width="110" height="75"/>
	<text transform="matrix(0.4699 0 0 1 525.5 156.4541)" class="st31 st32 st33">Grub time</text>
	<text transform="matrix(0.4699 0 0 1 525.5 156.4541)" class="st34 st32 st33">Grub time</text>
	<ellipse class="st35" cx="590" cy="99" rx="14" ry="13"/>
	<ellipse class="st35" cx="614.2" cy="108.3" rx="8" ry="5.5"/>
	<circle class="st36" cx="612" cy="91" r="5.5"/>
	<ellipse class="st37" cx="587.4" cy="94" rx="5.4" ry="4.1"/>
	<g>
		<g>
			<path class="st38" d="M611,91.5c3.2,0,3.2-5,0-5S607.8,91.5,611,91.5L611,91.5z"/>
		</g>
	</g>
	<g>
		<g>
			<path class="st38" d="M612,109.5c3.2,0,3.2-5,0-5S608.8,109.5,612,109.5L612,109.5z"/>
		</g>
	</g>
</g>
</svg>
